<?xml version="1.0" encoding="UTF-8"?>
<svg id="Layer_0_xA0_Image" xmlns="http://www.w3.org/2000/svg" version="1.1" xmlns:xlink="http://www.w3.org/1999/xlink" viewBox="0 0 1024 1024">
  <!-- Generator: Adobe Illustrator 30.0.0, SVG Export Plug-In . SVG Version: 2.1.1 Build 123)  -->
  <defs>
    <style>
      .st0 {
        fill: #ebebec;
      }

      .st1 {
        fill: url(#linear-gradient2);
      }

      .st2 {
        fill: #d50013;
      }

      .st3 {
        fill: #f10004;
      }

      .st4 {
        fill: #f4bbbf;
      }

      .st5 {
        fill: #e74a54;
      }

      .st6 {
        fill: #e8e9ea;
      }

      .st7 {
        fill: #e51137;
      }

      .st8 {
        fill: #df000e;
      }

      .st9 {
        fill: #dedfdf;
      }

      .st10 {
        fill: #dddede;
      }

      .st11 {
        fill: #f6575e;
      }

      .st12 {
        fill: #e20f22;
      }

      .st13 {
        fill: #e4000b;
      }

      .st14 {
        fill: #f8f9f9;
      }

      .st15 {
        fill: url(#linear-gradient1);
      }

      .st16 {
        fill: #ae0029;
      }

      .st17 {
        fill: #1c1f26;
      }

      .st18 {
        fill: #dfe0e0;
      }

      .st19 {
        fill: #ee4550;
      }

      .st20 {
        fill: #ea0f17;
      }

      .st21 {
        fill: #141519;
      }

      .st22 {
        fill: #e1e1e1;
      }

      .st23 {
        fill: #f7c9cc;
      }

      .st24 {
        fill: #c40227;
      }

      .st25 {
        fill: #e2e2e3;
      }

      .st26 {
        fill: #f1959b;
      }

      .st27 {
        fill: #dedfe0;
      }

      .st28 {
        fill: #131418;
      }

      .st29 {
        fill: #dededf;
      }

      .st30 {
        fill: #fc3c41;
      }

      .st31 {
        fill: #ec95a1;
      }

      .st32 {
        fill: #e0e0e0;
      }

      .st33 {
        fill: #f9f9f9;
      }

      .st34 {
        fill: #f40003;
      }

      .st35 {
        fill: #6d7c84;
      }

      .st36 {
        fill: #ee949b;
      }

      .st37 {
        fill: #e8eaea;
      }

      .st38 {
        fill: #bfc3c3;
      }

      .st39 {
        fill: #e2061a;
      }

      .st40 {
        fill: #f61e27;
      }

      .st41 {
        fill: #e9262f;
      }

      .st42 {
        fill: #e83e48;
      }

      .st43 {
        fill: #9da0a0;
      }

      .st44 {
        fill: #e23a4c;
      }

      .st45 {
        fill: #737981;
      }

      .st46 {
        fill: #ea737c;
      }

      .st47 {
        fill: #e50e2f;
      }

      .st48 {
        fill: #909296;
      }

      .st49 {
        fill: #e7000a;
      }

      .st50 {
        fill: #a0a8aa;
      }

      .st51 {
        fill: url(#linear-gradient3);
      }

      .st52 {
        fill: #f80001;
      }

      .st53 {
        fill: #b80028;
      }

      .st54 {
        fill: #db2334;
      }

      .st55 {
        fill: #d90a2e;
      }

      .st56 {
        fill: #e11329;
      }

      .st57 {
        fill: #fcb7b9;
      }

      .st58 {
        fill: #d30422;
      }

      .st59 {
        fill: #e66a79;
      }

      .st60 {
        fill: #f8f8f9;
      }

      .st61 {
        fill: #f80b04;
      }

      .st62 {
        fill: #e9eaea;
      }

      .st63 {
        fill: #e96f79;
      }

      .st64 {
        fill: #ef2631;
      }

      .st65 {
        fill: #f8f8f8;
      }

      .st66 {
        fill: url(#linear-gradient);
      }

      .st67 {
        fill: #eaebeb;
      }

      .st68 {
        fill: #eaebec;
      }

      .st69 {
        fill: #f93640;
      }

      .st70 {
        fill: #fa7e83;
      }

      .st71 {
        fill: #d61631;
      }

      .st72 {
        fill: #a2a3a6;
      }

      .st73 {
        fill: #535665;
      }
    </style>
    <linearGradient id="linear-gradient" x1="158.64" y1="2470.01" x2="452.46" y2="2572.55" gradientTransform="translate(565.97 244.71) scale(.05)" gradientUnits="userSpaceOnUse">
      <stop offset="0" stop-color="#e3101d"/>
      <stop offset=".48" stop-color="#eb737b"/>
      <stop offset="1" stop-color="#ed070e"/>
    </linearGradient>
    <linearGradient id="linear-gradient1" x1="278.55" y1="2390.18" x2="401.81" y2="2416.34" gradientTransform="translate(565.97 244.71) scale(.05)" gradientUnits="userSpaceOnUse">
      <stop offset="0" stop-color="#e11417"/>
      <stop offset=".46" stop-color="#be0014"/>
      <stop offset="1" stop-color="#ef0503"/>
    </linearGradient>
    <linearGradient id="linear-gradient2" x1="257.34" y1="2369.46" x2="283.47" y2="2376.28" gradientTransform="translate(565.97 244.71) scale(.05)" gradientUnits="userSpaceOnUse">
      <stop offset="0" stop-color="#fdb1ad"/>
      <stop offset="1" stop-color="#e22428"/>
    </linearGradient>
    <linearGradient id="linear-gradient3" x1="401.74" y1="2400.11" x2="423.47" y2="2403.56" gradientTransform="translate(565.97 244.71) scale(.05)" gradientUnits="userSpaceOnUse">
      <stop offset="0" stop-color="#ec1211"/>
      <stop offset="1" stop-color="#fc736e"/>
    </linearGradient>
  </defs>
  <g>
    <path class="st17" d="M414,183c9.14,8.76,14.98,15.86,28.63,16.89,8.58.65,14.4-6.25,21.29-2.3,5.11,2.93,3.21,5.57,11.71,7.28,29.28,5.92,63.1.99,91.87,4.13,4.54.5,11.6,3.54,12.44,8.56,1.96,11.72-4.34,15.46-5.68,25.2-1.18,8.59,1.56,16.43.73,24.73-.61,6.13-4.01,9.8-4.98,15.51,4.93.86,7.15-5.69,11.44-5.86l43.93,8.99c7.97,4.61.83,13.59,2.03,19.9,3.9,20.56,40.75,39.22,60.13,38.8,10.64-.23,2.22-9.61,7.51-14.29,3.15-2.79,14.4-2.91,19.95-5.05,10.76-4.14,13.17-11.34,26.53-12.47,22.62-1.91,41.62-.68,63.47-9.53,10.9-4.42,28.47-19.7,39.03-7.99,6.03,6.69.91,15.03,2.45,18.47,1.49,3.34,15.22,9.91,16.99,15.08,3.21,9.37-6.74,17.5,8.51,21.5,5.71,1.5,16.09-.18,16.09,7.95,0,6.49-8.27,6.23-8.04,12.5,4.08.41,9.15-.77,13.05.45,3.32,1.05,3.68,4.58,6.19,5.81,5.24,2.56,12.73.57,17.77,6.23,6.52,13.3,9.94,26.92,19.01,38.99,5.54,7.37,13.28,12.5,17.98,20.52v9c-4.9,10.84-17.44,7.18-27.22,8.28-9.95,1.12-28.6,5.65-38.6,8.4-4.41,1.21-9.26,1.41-10.11,6.89-.95,6.05,2.31,17.43-6.01,19.99-10.4,3.19-14.76-2.97-15.06-12.55-.73-.74-11.07,15.27-10.98,17.46.39,1.85,13.02,1.56,13.08,13.03.09,17.84-22.88,18.36-32.42,25.67-1.12.86-2.06,1.03-1.66,2.83,26.38-.8,51.98-8.11,77.87-12.44,7.34-.01,7.04,6.57.36,9.18-13.89,5.42-36.32,9.86-51.42,13.58-4.17,1.03-21.79,3.73-23.27,5.73-1.17,1.57-2.55,9.21-2.61,11.44-.2,7.06,4.01,11.68.9,18.85-.87,2.02-11,15.51-12.82,17.18-3.02,2.76-6.68,3.34-8.95,5.05-1.81,1.37-2.83,4.8-5.14,6.86-4.76,4.24-12.12,4.57-16.93,10.07-5.64,6.46-5.44,18.73-8.53,22.46-2.92,3.51-7.1.7-7.47,1.03-.65.58-1.99,15.86-1.81,17.29.33,2.59,6.69,10.53,8.29,14.73,1.49,3.92,1.89,6.94,2.51,10.99.44,4.31.44,8.68,0,13-1.48,9.67-6.64,17.17-7.74,24.76-.71,4.9.15,9.84-.28,14.72-1.76,20.18-16.69,35.53-34.96,42.58,2,8.21,5.64,18.48.8,26.26-5.93,9.54-26.63,9.13-35.26,20.74-11.33,15.22,10.28,24.46,1.89,37.89-6.5,10.4-34.72,13.88-43.5,5.6-3.61-3.4-3.05-7.86-4.87-10.13-1.05-1.3-4.99-2.31-6.98-4.02s-6.41-9.7-8.46-9.33c-9.82,4.33-6.13,32.86-20.59,28.4-4.93-1.52-10.64-20.27-12.32-25.7-4.29-13.94-6.93-28.29-8.74-42.77-12.9,6.3-23.54,2.19-26.57-12.06-5.28.76-10.49,1.88-12.43,7.06l-1,11c-3.19,18.94-12.99,24.86-30.48,14.99-6.48,16.82-15.32,29.67-30.6,39.42-2.04,1.3-5.99,2.3-6.92,3.08-1.26,1.08-1.13,4.02-2.13,5.87-2.94,5.48-10.94,7.78-16.72,5.96-7.9-2.5-8.19-12.62-12.77-15.22-5.01-2.85-13.9.55-19.81-5.19-4.15-4.03-9.34-20.73-10.33-26.67-.4-2.39-1.3-8.66-1.28-10.78s2.13-4.65,1.61-5.49-13.55-9.03-16.05-11.01c-3.28-2.61-19.71-18.62-21.09-18.93-2.71-.61-6.33,11.01-7.61,13.29-4.47,7.96-16.25,18.11-23.85,8.2-8.27-10.78,2.25-21.27,2.1-32.04-.06-4.37-4.82-25.1-8.06-27-2.86-1.67-7.45,1.07-11.03-3.97-2.6-3.65-1.97-8.33-1.98-12.52-14.08-1.31-22.82,11.91-29.18,22.33-10.46,17.14-23.86,50.86-42.45,59.55-21.65,10.12-17.17-17.17-15.06-30.06,3.45-21.11,14.71-35.08,20.4-53.59,3.45-11.23-4.36-13.41-11.22-20.21-3.65,7.29-29.48,33.09-37.55,27.53-6.08-4.19,8.09-9.74,9.99-11.11,7.83-5.68,14.81-13.69,20.64-21.38-5.91-7.87-16.79-25.94-27.06-27.08-12.86-1.43-18.44,10.7-30.5-4.5-4.31-5.43-9.25-20.69-17.47-19.51-3.09.44-3.96,5.19-7.89,3.93-1.65-.53-5.39-11.41-7.81-14.25-1-1.18-4.83-4.34-6.11-4.9-5.21-2.26-9.36,4.15-17.47,1.48-13.28-4.37-23.28-27.15-21.03-40.49.81-4.78,4.12-7.59,5.76-11.73-7.05-.7-14.08-3.41-20.77-5.73-23.07-8.04-57.83-17.23-41.04-49.58,5.28-10.18,14.04-14.56,12.7-28.08-1.58-15.89-8.18-30.3-6.93-48.14,1.78-25.36,20.12-28.62,7.21-58.14-5.75-13.16-14.74-25.01-18.17-39.33v-6c.51-2.93,2.31-5,5.41-6.21.18-6.72-.98-13.58-3.47-20.57-1.89-12.45-5.07-34.54,14.92-24.94,14.27,9.56,29.01,17.08,44.22,22.55-.93-12.01,5.18-22.91,18.66-16.75,19.33,12.32,31.55,17.15,53.68,6.09,5.05-2.53,9.99-5.34,14.86-8.25,30.22-22.12,60.82-37.68,98.97-28.76,10.49,1.04,12.65-7.41,14.34-16.4,4.84-39.75,12.87-49.01,24.1-27.77l7.31,16.18c7.64-15.49,14.82-29.09,34.61-18.71,11.38,2.38,19.47-19.31,20.11-28.47l2.49-20.45c-.18-5.9,1.76-9.07,5.81-9.53h1Z"/>
    <path class="st48" d="M776,707v-13c.96,6.31.96,6.75,0,13Z"/>
    <path class="st72" d="M555,822c-.04-4.19-.47-7.07,1-11,.65,3.92-.41,7.47-1,11Z"/>
    <path class="st65" d="M598,800c-7.02-29.55-19.73-57.1-40.63-79.66-15.42-13.89-30.1-28.48-44.03-43.78-1.5-1.69-4.47-9.05-4.43-10.49.01-.47,3.35-7.88,3.7-8.19,1.05-.93,11.89-4.41,13.92-4.7,17.37-2.53,36.57,6.97,52.23,15.78,19.11,8.25,26.74,3.15,40.73-10.1,4.11-3.33,8.97-5.91,14.38-5.97l.76-1.83c-1.83-2.92-11.34-20.57-9.73-22.19.98-.98,9.06,1.04,10.23,2.94l17.9,17.75c13.24,11.13,18.71,9.47,28.17-5.54l1.4-.3c6.94,8.24,14.02,16.31,21.25,24.21,7.94,4.58,17.22,5.63,27.83,3.16,6.72-.1,15.35,1.32,19.32,6.91,10.01,7.92,12.45,17.79,10.74,30.24-1.01,7.35-6.45,16.11-6.64,23.37-.42,15.72,5.91,21.27-4.28,37.71-7.24,11.69-12.79,10.68-22.19,16.81-8.14,5.31.89,15.73-4.05,21.95-2.59,3.26-11.41,4.6-15.56,6.44-15.63,6.93-27.69,15.82-26.05,35.03,1.07,12.56,16.31,19.19-2.93,23.99-5.17,1.29-15.43,2.93-18.92-2.14-1.54-2.24-1.58-6.73-4.54-8.46-2.19-1.28-4.6-.54-5.42-1.07-.46-.29-2.34-6.88-5.1-9.4-14.29-13.03-20.25,2.68-24.95,13.14-.39.88-.46,3.13-2.09,1.4-.63-.67-4.18-15.47-4.69-17.82-2.3-10.41-4.06-40.04-10.8-46.19-1.27-1.16-3.86-2.31-5.52-2.99Z"/>
    <path class="st62" d="M134,599c-.04-.37-.2-.75-.51-.96l-56.2-23.83c-22.61-15.8,8.41-32.05,10.62-48.79,1.57-11.91-7.97-32.01-8.9-45.93-1.42-21.34,11.3-34.68,10.02-53.03-1.13-16.14-17.22-34.02-22.9-49.09-5.93-15.72,5.62-7.92,5.96-18.86.31-10.04-9.23-29-8.13-36.98.12-.91.79-2.37,1.58-2.52,2.25-.45,29.6,17.03,34.45,19.52,13.7,7.05,26.22,13.3,30.03-7.52,4.25-.09,7.28,3.61,10.97,5.52,9.72,5.03,18.7,8.24,29.92,7.58.45,4.89,2.73,9.31,4.1,13.9,8.41,27.38,15.87,55.05,22.37,83.03-5.59,3.67-41.9,28.68-39.45,32.9,6.79,1.23,34.7,12.1,32.7,20.62-7.67,10.98-14.99,21.98-21.31,33.81-9.4,17.61-13.54,31.82-15.43,50.94-1.14,5.38-3.76,9.31-7.42,13.35-2.57,2.84-9.28,9.28-12.46,6.36Z"/>
    <path class="st33" d="M747,323c.19-.57-.6-1.75.62-2.04,5.4-1.3,19.06.41,25.87.03,13.52-.75,29.01-3.17,41.48-8.52,3.58-1.54,15.09-8.96,17.51-8.47,1.72.35.31,7.57.77,10.27,2.18,12.97,17.18,15.44,19.26,19.73,1.43,2.95-.02,8.85.55,12.45,1.83,11.58,22.45,11.84,22.95,14.08-12,22.2,4.48,13.62,14.32,16.66,1.96.6,2.09,2.84,3.43,3.85,5.41,4.07,12.74,1.73,16.69,6.03,3.29,3.58,3.73,16.38,5.05,21.95,3.83,16.26,12.42,26.57,24.51,37.49-15.17,1.18-30.57,4.63-45.21,8.78-19.78,5.6-28.48,9.12-26.79,32.71-8.24,1.12-.27-17.44-7.63-18.86-2.49-.48-17.3,14.97-19.88,17.85-5.96,6.64-17.94,18.04-7.45,26.47,1.81,1.45,5.08,1.57,5.95,3.53-13.87,3.75-30.03,7.31-30,25.02-14.45.38-15.04-15.61-20.12-25.38-4.8-9.23-13.61-16.17-23.76-18.75-.36-1.26-.1-2.58-.12-3.87-2.02-4,1.24-10.86,3.31-15.08,7.52-11.24,14.66-22.69,21.41-34.36,5.37-7.89,3.52-40.42-10.25-28.29-37.06,9.3-33.43-36.08-28.59-60.03l-.73-1.53c1.5-10.43.44-21-3.16-31.71Z"/>
    <path class="st22" d="M403,251c2.09-1.89,22.78.92,23.47,2.39,1.14,21.67,10.33,37.45,26,51.14.98,3.2,1.09,6.51.36,9.94-2.49,13.5-5.52,26.78-9.08,39.86-2.74,2.02-6.35,1.19-10.81-2.48-2.84,2.3.9,31.43,1.91,36.6-1.95,2.57-5.51,3.41-10.69,2.51-1.05,6.94-2.16,13.91-3.32,20.89-17.21,6.14-31.52,17.42-43.7,31.09-1.9,4.05-3.81,4.96-5.72,2.72l-15.33-25.27c-3.15-5.84-7.39-9.54-12.7-11.13-11.96,4.89-13.38,2.82-18.73-7.71-9.17-26.59-27.05-48.69-44.91-70.4l-10.28-13.84c-.62-1.05,2.09-21.28,3.55-23.33,10.65-.3,36.95,5.02,44.51,0,7.99-5.31,11.1-32.53,13.5-42.01,2.29-.41,1.59.15,2.23,1.28,3.2,5.76,8.64,25.63,14.02,27.96,15.34,6.66,17.14-25.24,24.77-28.73,4.17-1.91,11.65,3.11,20.28.29,6.05-1.98,3.18-2.12,10.71-1.8Z"/>
    <path class="st62" d="M433,829l-.63-1.74c9.15-3.93,14.4-9.98,15.76-18.17l1.5-16.44c2.47-12.66,14.73-10.45,23.95-6.99.3-.34.58-.68.82-1.06,5.09-8.01-13.87-56.78-18.37-67.9-1.2-2.97,5.43-7.13,8.18-7.75-9.04-13.1-4.83-27.35,4.54-38.97,10.05-12.48,26.31-10.93,39.44-4.33.31.15.8-.07,1.35-.4,2.07,10.58,8.27,19.72,18.59,27.45,32.4,27.64,62.92,62.12,67.85,106.3-1.43-.09-9.85,5.16-10.99,4.01-1.27-14.17-7.62-17.62-21.25-15.75-21.66,2.98-26.08,18.08-24.76,37.74-10.89-3.73-23.33-9.39-28.05,5.45-4.89,15.39-4.92,28.45-18.93,40.07-2.55,2.12-9,4.87-10.02,5.98-1.94,2.13-1.46,8.16-7.58,8.52-4.88.29-7.19-9.9-9.58-13.35-6.9-9.95-18.79-5.02-23.29-10.71s-9.27-24.92-8.54-31.96Z"/>
    <path class="st33" d="M399,249c-1.31-.99-1.04-.07-.02-1.5,2.28-3.18,5.35-5.09,7.82-9.2,7.54-12.58,8.06-28.14,10.21-42.3,9.07,7.79,19.55,10.98,31.52,10.03,3.16-.25,8.5-2.48,10.74-1.89,2.18.58,3.23,3.88,4.82,5.25,7.3,6.31,54.54,10.01,66.41,10.59,12.47.6,25.19-1.16,37.49,1.02-2.91,9.93-5.95,16.53-4.88,27.37.61,6.22,3.91,13.87,3.87,20.12-.06,9.72-3.11,20.44-1.99,30.5,5.34,11.55.7,19.13-8.76,26.27-3.86,4.44-4.01,10.16-.47,17.14.05,1.25-.16,2.57-.88,3.63-2.2,3.22-40.43,1.99-44.44,1.72-18.98-1.26-41.9-3.63-60.3-8-1.41-.34-2.72-1.36-2.3-2.85,3.77-11.18,5.26-22.05,4.45-32.62-15.8-13.36-24.53-29.7-25.74-50.7-8.91-2.23-18.1-3.76-27.56-4.58Z"/>
    <path class="st33" d="M733,528c0-.13.98-1.13,1.04-2.42.27-5.83-.28-11.75-.03-17.58,11.44,2.52,31.6,5.63,38.99,15.5,3.19,4.26,4.32,10.39,6.82,15.18,9.41,18.01,23.19,19.35,42.19,19.32.74.74-1.76,8.47-1.79,10.49-.07,3.83,3.17,13.46,2.62,15.8-.24,1.02-10.58,15.83-11.84,17.19-4.49,4.86-7.54,2.34-10.03,3.97-1.03.67-1.37,3.98-2.47,5.53-3.48,4.88-9.72,4.1-14.53,5.47-11.16,3.19-16.1,19.51-17.45,19.51-.33,0-2.03-2.64-5.95-1.98-5.28.89-5.77,11.16-6.43,15.64-1.32,8.93-1.81,18.39-2.13,27.37-6.33-3.36-12.63-6.52-20.23-5.91-22.42,5.02-31.66-3.74-44.08-21.91l-5.94-5.57c8.12-15.24,11-32,8.65-50.27,1.12-21.74,22.55-30.89,41.31-34.06.93-10.44,1.36-20.87,1.29-31.27Z"/>
    <path class="st67" d="M617,313c13.61,21.9,30.18,36.69,57.52,38.98,13.38,1.12,29.17.95,25.54-16.94,6.95-.65,13.24-2.04,19.62-4.88,8.71-3.87,20.24-18.3,26.33-5.17,4.13,2.61,7.07,28.96,4.26,30.67-4.43,1.28-20.64,8.37-22.1,12.57,2.68,10.62,3.55,17.78,1.75,29.25-4.5,14.39-6.48,28.81-5.95,43.24-9.95-1.52-17.21-.94-24.28,7.06-3.73,3.21-7.43,2.73-11.11-1.42-6.16,2.43-12.28,5.04-18.34,7.85,4.35-18.59-16.95-35.02-33.52-34.53.64,11.64-6.67,17.1-21.94,16.38.24-1.31.37-2.6.14-3.82-5.94-31.25-10.79-64.18-4.39-95.3,1.35-5.07-.49-9.2-5.5-12.4-.54-2.56,9.29-10.81,11.99-11.56Z"/>
    <path class="st33" d="M137,603l.06-2.94c15.64-8.39,18.28-22.59,19.57-38.91.95-4.97,4.11-21.33,8.38-23.15,9.34,1.41,18.43,4.61,27.29,9.6,3.8,1.6,7.59,2.17,11.32.07,19.1-15.1,41.66-11.8,63.14-4.39,8.34,1.63,10.4,1.25,10.43-7.95,2.35-6.9,11.8-4.56,17.23-2.72l15.32,7.55c7.09,3.26,15.3,1.63,19.03-5.64l2.33-.52c3.11,4.01,6.41,7.67,9.9,10.99-4.78,3.64-11.35,2.13-16.45,10.05-4.39,6.8-.15,12.06-1.76,19.24-1.45,6.46-10.33,7.62-13.24,1.67-3.29-6.72-.13-21.21-12.27-23.72-15.87-3.27-19.68,15.41-29.23,22.31-3.76,2.71-9.84,2.75-11.59,8.4-3.04,9.79,4.14,14.56,9.55,21.05-9.64,1.64-18.4,2.51-28.05.56-12.2-2.47-20.12-9.07-33.65-3.75-9.62,3.78-20.18,17.62-14.5,27.9,4.83,8.74,22.31,2.69,22.25,8.81-.01,1.57-13.69,10.84-15.03,14.02l-7.04,12.47c-3.68-3.3-6.26-4.71-11.43-3.95-1.92.28-4.06,2.51-5.58,1.54-1.69-1.09-5.04-10.8-10.64-14.42-9.6-6.2-11.64,1.27-20.78-.22-10.12-1.65-24.27-29.51-14.5-38.38,2.86-2.6,6.55-1.87,9.95-5.55Z"/>
    <path class="st62" d="M570,555l8.74,3.76c5.91.98,11.12.35,15.25-4.27,1.3-1.45,5.01-8.58,5.01-9.99v-20.5c20.36,10.31,34.75,21.46,59.05,16.55,25.01-5.05,44.42-30.77,65.46-32.53,11.27-.94,5.56.51,8.49,8.98,1.22,14.18,1.07,28.32-.44,42.45-20.38,2.94-42.37,14.04-41.32,37.65,1.8,16.98-.42,31.96-7.87,47.31-.8-.04-1.46.01-1.67.34-10.65,17.15-17.32,14.24-30.52,2.2l-11.63-12.09c-3.58-3.57-8.27-7.51-13.53-5.24-3.25-9.27-6.05-18.69-8.39-28.26-5.03-16.09-10-31.36-29.62-24.87l-12.55,3.83c-2.14-8.33-4.11-16.81-4.46-25.33Z"/>
    <path class="st33" d="M271,295l.82,1.24c-1.11,7.11-1.86,14.24-2.26,21.39,11.61,14.97,23.14,29.95,34.61,44.96-12.07,3.74-14.32,9.85-13.48,21.95.72,10.4.73,11.24-8.8,5.09-10.75-5.99-39.62,5.51-34.54,19.76,5.37,5.22,3.6,10.22-5.31,15.02-3.1,10.75-6.81,14.96-18.73,11.71-8.2.39-15.61,2.63-23.38,5.14l-3.96-.16c-5.75-28.58-12.4-56.94-19.95-85.1-1.15-4.31-3.3-8.44-3.01-13,26.8-3.08,46.64-25.54,69.09-38.42,10.97-6.3,16.7-8.53,28.92-9.58Z"/>
    <path class="st27" d="M345,734c2.33-15.06,10.19-10.1,19.41-3.8,5.24-13.87,16.47-13.04,28.59-10.32,3.14.43,6.33-.02,9.2-1.44,13.77-10.27,23.81-9.17,37.12.39,5.04,2.7,9.98,1.18,14.11-2.29l3.22-.74c4.01,9.39,22.47,64.47,18.33,69.92-24.15-8.64-26.61,3.34-26.96,24.15-1.29,6.12-2.38,8.19-7.34,12.11-1.92,1.52-8.18,5.37-9.68,4.04-3.44-5.13-8.3-7.03-12.53-10.97-4.59-4.28-25.1-27.43-28-28-9.35-1.86-12.88,6.84-16.33,13.62-2.31,4.53-2.47,12.43-9.13,12.36-2.33-6.71,1.59-12.83,2.02-19.46.92-14.15-6.28-26.37-10.95-39.11-2.47-3.12-6.82.3-10.08-.42-2.15-3.35,3.17-13.44,2.93-14.41-.28-1.17-2.68-1.56-3.42-2.65s-.28-2.18-.51-2.94Z"/>
    <path class="st25" d="M616,312c-3.96,3.63-7.63,7.75-11.01,12.37,4.86,3.44,6.72,7.53,5.56,12.27-6.46,32.32-1.67,66.76,5.12,99.08-13.71,2.27-27.31,4.86-40.77,7.77-3.82-5.56-7.81-10.98-11.97-16.23-7.65-5.35-15.49-10.46-23.54-15.34-11.54-8.43-21.68-18.83-3.21-26.52,1.86-14.57,4.78-24.91,16.01-35.33,4.65-6.79,3.93-8.88,1.02-16.43-.55-2.77.39-5.26,2.17-7.38,12.24-9.21,12.95-14.89,10.64-29.27-.61-10.48,4.24-6.87,10.3-8.21,2.69-.6,3.88-3.42,6.26-3.81,7.07-1.15,26.29,7.39,34.74,7.22,3.3,1.4-.04,8.12-.34,11.35-.34,3.7,2.5,4.28-.96,8.45Z"/>
    <path class="st14" d="M693,502c-10.02,9.26-33.16,22.84-46.6,24.9s-32.01-.9-39.4-12.9c-8.74-12.48-17.74-25.06-27.78-36.77-5.3-6.94-6.72-15.14-4.28-24.62-1.49-2.19-3.12-11.02,1.35-9.86l38.41-6.78c10.34-.42,24.49-1.3,21.92-16.3,15.49-.69,37.61,15.36,33.47,32.93l1.07.72c-3.15,7.56-.79,16.86,5.38,22.37l13.37,10.57c4.83,3.43,10.47,12.87,3.09,15.75Z"/>
    <path class="st9" d="M559,538c.78.14,2.14-.43,2.79.17.78.71,6.66,17.54,7.21,19.83,2.11,6.56,3.76,13.49,4.94,20.79l1.7,1.27c22.13-8.33,31.44-8.11,39.23,15.74l9.06,31.51,1.38,1.2c1.43,8.11,4.73,16.03,9.9,23.77-6.33.94-11.8,2.92-16.58,7.24-18.19,21.38-36.01,12.99-56.75.68-10.48-5.14-22.03-7.72-33.73-7.15-1.26-.5,5.04-24.48,5.6-26.48,3.23-11.52,4.78-13.74,16.37-18.19,6.29-11.44-1.4-22.21-8.08-31.33-8.29-15.51-.56-35.37,16.94-39.06Z"/>
    <path class="st37" d="M457,563c-2.94,7.37-7.5,14.47-13.69,21.29-6.92,10.41-12.41,18.94-.5,28.64l1.41,2.82c-.51,12.91-.58,21.43,8,32.32,6.96,22.06-8.39,23.22-25.7,20.72-14.47-2.09-17.91-2.92-21.09-18.74-7.18-1.47-8.99-4.05-5.43-7.75,1.28-8.16-18.89-5.94-23.78-5.18-11.7,1.98-23.37,4.12-35.03,6.42-6.7.96-16.12,2.24-13.24-7.2-2.6-14.42-3.43-28.69-2.49-42.8,11.66-4.13,22.85-8.98,33.56-14.55.4-.02,1.66-1.22,1.93-.97.31.29,2.59,5.59,4.09,7.45,10.24,12.68,23.91,15.53,37.47,5.52,9.36-6.91,17.63-25.83,30.13-26.96,7.6-.68,15.42,2.09,24.37-1.04Z"/>
    <path class="st18" d="M344,732c-.22.42-.96,1.89-1.06,1.93-.39.14-5.43-1.08-8.32-.81-35.45,3.43-46.26,51.9-63.81,76.19-3.64,5.04-7.92,10.94-14.81,10.69-1.39-23.36,7.42-42.86,17.47-63.02,4.53-9.08,10.09-13.72,8.28-25.24-1.58-10.01-8.77-14.84-15.51-21.22,8.09-13.6,9.25-34.05,1.78-48.04-2.5-4.68-5.53-5.1-5.02-10.48,2.94-2.63,8.34-2.19,12.15-1.17,17.06,7.61,38.51,4.55,50.79-10.13,1.04-.46,2.09.11,3.15,1.7,4.23,28.03,9.73,56.48,19.32,82.46-.2,1.86-2.8,6.13-4.41,7.14Z"/>
    <path class="st22" d="M763,496c-.15.1-.09.82-.47.83-.5.01-7.26-3.02-9.31-3.55-15.45-3.98-29.9-5.25-45.2.23-1.81.65-9.32,5.23-10.01,4.49.45-1.77-.45-2.69-1.01-4.01-5.37-6.42-11.72-12.09-19.06-17.02-5.64-2.15-10.8-19.27-7.6-22.87.73-.82,18.26-8.32,19.76-7.53,1.3,4.19,5.36,4.16,8.56,1.94,7.08-6.98,13.75-10.33,23.85-7.59l1.28-1.35c-.23-13.95,1.78-27.85,6.04-41.7,1.87-11.53,1.2-18.83-1.62-29.78,1-2.92,21.78-14.05,22.63-13.03l-2.56,23.16c-4.61,25.78,12.09,50.54,38.5,34.8,9.56,12.79,6.47,28.36-2,40.76-10.84,12.83-18.11,26.9-21.79,42.22Z"/>
    <path class="st21" d="M565,299l1-2c.31,5.41,3.22,9.98,1.79,16.29-1.59,6.97-12.56,11.58-13.63,17.44-.64,3.5,2.66,8.19,2.76,11.86.26,9.37-11.4,15.2-15.08,24.73-2.22,5.74-1.98,15.65-3.94,19.06-2.53,4.42-10.26,2.19-9.83,9.01.77,12.19,28.86,22.86,37.49,31.55,4.28,4.31,6.33,10.19,10.04,14.88l39.26-7.3c-6.54-25.94-9.41-54.29-7.89-81.07.31-5.41,3.42-17.66,2.85-21.75-.55-3.97-5.61-4.53-5.89-7.23-.43-4.24,9.43-9.29,12.08-12.48.34.31.76.61,1,1-1.96,1.5-11.29,9.84-10.96,11.4.36,1.73,5.27,2.78,5.78,6.31.64,4.44-2.54,17.05-2.86,22.75-1.53,27.67,1.95,54.51,7.05,81.54,5.86.08,17.68-1.31,19.6-7.97,1.06-3.69-2.53-6.36,1.68-8.31,8.21-3.8,32.29,14.05,33.65,22.85.55,3.58-.26,7.77.07,11.44,3.27-.96,17.89-9.03,19.84-7.87.39.23.71,2.65,2.14,3.43,3.8,2.08,8.88-4.62,11.67-6.4,6.53-4.17,10.96-3.48,18.33-2.16-3.31-19.96,9.19-40.15,6.9-59.39-.43-3.63-3.33-9-2.92-12.05.81-5.93,18.93-10.87,22.86-15.22,1.77-5.14-1.39-23.05-3.84-28.34-.02-.81.83-1.49,1-2,2.15,5.7,4.44,12.43,4.98,18.52,1.59,17.81-4.9,35.51-2.88,52.88,1.56,13.4,12.63,25.24,26.95,22.16,7.41-1.59,9.1-9.98,13.82-.93,16.84,32.26-25.21,53.31-24.88,78.38-.71.57-1.29,1.5-2,2-.06-30.27,43.34-49.35,23.4-81.92-9.13,4.78-17.95,7.78-27.34,1.36-18.54-12.68-10.65-40.87-9.07-59.44-3.68,2.23-20.02,9.18-20.84,12.71-.43,1.85,2.4,8,2.74,10.9,2.43,20.28-10.46,41.38-6.89,62.4-5.17.11-8.78-1.66-14.06-.55-6.31,1.32-9.84,8.72-15.51,9.52-6.12.86-5.67-3.78-6.9-3.89-.97-.09-17.04,7.66-17.36,8.58-.57,1.67-.35,6.77-.07,8.75,1.83,13.12,20.8,17.43,25.91,29.59.51,3.17-.06,10.78-4,8,10.13-9.36-10.46-19.04-16.52-24.98-11.98-11.71-5.75-20.36-7.45-34.55-1.09-9.06-22.44-23.44-32.02-22.47,1.71,7.74-.71,12.7-8.45,15.05l-53.56,8.96c3.47,12.2-4.45,20.27,4.03,31.46,10.81,14.27,18.29,22.8,27.98,38.52,0,.56-.49.96-1,1l-4.13-3.18c-6.81-11.18-14.63-21.48-23.45-30.9-7.08-7.67-8.89-15.56-6.64-25.68l-25.44,14c-21.73,6.15-42.06,14.13-25.14,39.26l-1.2,2.5c.08.77-.94,1.65-1,2l-2.54-1.3c-4.82-14.44-18.56-18.63-30.92-10l-3.54.3c-.39-.22-.68-.68-1-1-.55-1.64.11-3.29,1.99-4.94-10.3-8.95-17.26-21.04-22.12-33.65l-11.36-30.61c-10.67-31.25-38.51-15.17-56.74.05-2.2,1.84-14.99,13.8-14.92,15.2s13.11,19.77,15.1,21.37c15.62-11.59,50.16-12.58,46.11,14.69l1.08,2.12c10.32,3.28,15.16,7.53,21.23,15.86l11.38,1.79,1.25,2.12c-.28.37-.73.64-1,1-10.53,6.45-18.39-2.25-24-10.41l-10.82-4.29c-4.88-2.76-6.58-7.84-5.09-15.24-1.34-13.27-28.97-10.74-36.1-2.79-5.86,10.2-9.68,16.81-22.58,9.66,8.06,12.9,16.68,26.01,26.23,38.01,9.31,11.69,11.84,13.42,26.63,6.2,10-1.04,13.31,14.49,14,22.19,2.28.56,3.86,1.46,4.74,2.67l.52,1c-6.25-.61-13.63,1.29-19.52-1,1.27-2.5,4.03-3.54,8.29-3.14.17-3.93-3.7-16.65-8.38-15.77-10.32,6.55-18.64,6.27-24.95-.84l-32.57-45.93c-4.09,1.87-8.23,2.94-12.73,2.9,1.56,7.31,5.19,14.34,10.87,21.1l-1.53,1.69-1,2c-8.24-5.88-13.75-15.18-13.78-26.11-6.07-1.56-11.75-4.41-17.04-8.57l1.79,44.54c-.43,1.94-1.99,3.4-4.66,4.38,2.58,5.28,6.74,9.51,11,13.47l-.31,2.28c-.31.36-.62.71-1,1-3.05-1.2-5.4-3.63-7.56-5.98-1.09-1.19-1.61-4.41-3.42-3.01-.71.55-1.09,3.4-4.97,5.54-15.73,8.68-25.67-10.74-42.6-8.59-7.08.9.14,11.07-8.18,12.85-6.76,1.45-23.53-5.85-31.89-6.69-7.37-.74-18.76.3-25.67,3.09-5.67,2.29-11.64,8.84-18.2,8.88-6.26.04-16.87-6.65-23.23-8.87-4.07-1.42-9.93-4.45-12.05-.49-8.16,15.26-3.97,38.32-14.71,50.29-3.36,3.74-7.64,6.76-11.52,10.98-1.15-2.2-.99-3.62-4.02-3.02.09-.48,1.03-.91,1.02-.98,3.81-.84,8.2-3.82,11.02-6.48,10.62-9.99,8.02-18.8,10.43-31.57,4.45-23.56,18.87-47.94,33.42-66.64-7.54-13.61-22.19-14.22-34.87-19.83,11-14.46,26.31-24.75,41.71-33.93-6.49-27.55-12.62-55.42-20.71-82.55l1-2c7.46,27.86,16.02,55.51,21.01,84,8.71-2.4,16.33-5.54,25.6-5.91,1.9-.08,3.8.91,5.86.95,12.59.22,6.89-5.7,12.52-12.56,1.66-2.02,7.67-4.95,7.94-6.09.4-1.68-2.91-4.52-3.47-6.35-4.86-15.9,20.54-26.27,33.6-23.61,4.45.91,7.01,4.11,10.94,5.55-3.06-12.11-2.81-28.78,13.01-30.01l-34.5-44.05c-.34-7.51,1.89-15.33,2.5-22.94.58-.05,1.52-.99,2-1l-2.59,23.02c14.01,21.72,34.59,40.38,47.11,62.97,4.09,7.38,8.64,22.65,13.01,27.98,5.23,6.39,9.71-4.74,17.97,1.04,9.54,6.67,17.53,25.74,24.42,35.37,2,2.37,2.24-1.05,3.52-2.39,8.28-8.64,18.44-18.27,28.89-24.15,2.32-1.31,13.01-5.46,13.44-6.07,2.08-2.93,1.51-20.45,4.18-22.32,1.84-1.29,7.56,0,10.06-.45-1.08-5.41-6.01-38.14-.4-39.08,4.07-.23,5.49,4.6,9.38,4.08,1.91-10.27,13.52-40.09,9.49-48.98-.99-2.18-9.11-8.7-11.45-11.55-9.26-11.27-12.93-25.19-14.46-39.54-.82-1.29-19.53-2.8-22.57-2.93-1.21-1.13-2.55-.91-4-2,4.36-.16,26.87,1.17,28.51,3.99.48.82,1.61,12.5,2.36,15.64,1.83,7.65,5.23,15.72,10.15,21.85,2.47,3.08,13.09,11.93,13.77,14.22,2.41,8.12-5.7,27.54-4.68,31.72.18.72.83,1.22,1.55,1.42,29.67,4.99,58.58,9.72,88.88,8.2,2.45-.12,12.49-.78,13.81-1.19,3.46-1.08-1.01-8.53-1.3-11.46-.99-9.8,11.89-13.13,13.71-20.13,1.03-3.95-.28-10.04-.75-14.26Z"/>
    <path class="st25" d="M482,516c3.67.36,5.34-.03,9.27,1.23,9.35,2.98,18.35,13.17,29.27,13.79,16.04.91,37.27-24.85,40.55,4.38-.08.35-2.49,1.38-3.08,1.6-17.36,8.15-24.54,23.67-15.19,41.33,9.23,10.86,17.24,30.37-2.53,34.7l-1.82,1.82c-5.15,11.98-8.4,24.44-9.74,37.39-5.93,2.08-11.78,4.06-17.54,5.92-.28-5.47-2.6-10.49-5.2-15.19-12.22-17.21-17.95-35.48-7.62-55.1,1.18-3.44.66-6.67-1.34-9.69-14.17-17.58-18.23-39.89-15.03-62.18Z"/>
    <path class="st14" d="M481,517c-.63,21.75,1.27,43.36,16.04,61.2,2.08,3.13,2.48,6.39,1.26,9.9-11.33,20.92-2.8,39.52,9.18,57.69.9,1.78,1.67,3.62,2.33,5.51,2.21,6.33,2.87,8.56-.32,15.14-18.15-10.47-38.07-7.15-46.61,12.74-8.28,6.7-24.79,1.04-17.5-10.33,8.69-1.82,10.48-12.98,7.2-20-7.87-10.99-9.56-19.28-8.2-32.55l-1.58-3.38c-9.21-7.79-8.37-14.33-2.77-23.8,6.75-8.96,13.07-18,18.96-27.13,2.89-5.04,6.7-9.09,8.77-14.73,3.73-10.12,1.77-26.3,13.23-30.27Z"/>
    <path class="st6" d="M262.99,706c-1.69.42-2-.67-3.01-1.48-12.72-10.23-15.8-26.56-37.53-25.56-12.02.56-11.95,9.85-22.44-2.48-1.11-1.3-7.21-9.61-7.53-10.53-1.08-3.13,5.44-12.73,7.67-15.28,4.47-5.12,15.13-8.92,13.38-15.68-6.63-5.67-20.31.53-23.08-9.96-2.69-10.17,9.8-22.17,19.27-23.78,11.65-1.99,17.86,3.23,28.21,5.31,8.61,1.74,16.77,1.11,25.5.4,3.1-.25,4.14-3.84,6.97,1.14,1.93,3.4,2.55,7.64.14,10.97-4.36,6.01-19.01,1-24.43,11.57-6.82,13.3,9.51,23.58,15.29,33.45,8.31,14.2,6.29,26.88,1.57,41.92Z"/>
    <path class="st29" d="M358,578l.37.67c-10.3,6.07-21.24,11-32.8,14.79-1.08,14.14-.28,28.5,2.4,43.09.05,6.02-12.92,13.61-18.68,15.68-13.32,4.79-24.6,2.37-37.38-2.08-3.39,0-6.69.27-9.91.84-.64.2-.97,1-2,.52-2.95-1.38-8.68-9.67-8.97-13.14-1.02-12.47,20.03-6.11,26.39-17.46,7.84-14-8.05-20.57-12.28-28.55s5.45-7.9,10.39-12.35c4.21-3.79,15.28-23.81,21.23-17.78,3.85,3.9-3.3,16.6,8.33,25.17,13.1,9.66,27.33-.71,28.71-15.21.48-5.08-3.3-10.39,1.69-14.22,5.75-4.41,12.06.61,16.03,5,2.29,2.54,9.32,11.96,6.49,15.01Z"/>
    <path class="st14" d="M474,505c-3.74-.27-8.83-1.3-12.74-1.76-4.03-1.62-6.09-7.76-9.03-10.26-4.81-4.09-14.27-3.29-15.14-9.54-.92-6.64,2.06-10.71-4.06-15.97-9.59-8.25-32.4-4.85-41.01,4.53l-16.63-25.05c10.3-13.65,35.28-35.03,53.11-35.02,12.36,0,17.15,6.37,21.67,16.4,10.96,24.29,12.72,46.01,33.35,65.7,1.04.99,4.15.9,1.84,3.06-1.17,1.09-3.18,2.91-4.36,3.92-2.11,1.79-4.01,4.22-7,4Z"/>
    <path class="st32" d="M446,552c-10.11,1.57-5.87-6.23-8.8-13.7-.76-1.95-4.52-8.01-6.21-8.8-6.99-3.24-13.9,10.82-25.88-.11-5.1-4.65-28.53-38.1-32.13-44.87-.64-1.2-1.37-1.89-.97-3.52,5.4-1.11,8.91,4.41,14.28,2.8,3.69-1.1,6.67-8.99,9.18-11.84,7.16-8.12,26.9-9.32,35.72-3.65,7.39,4.76,1.28,14.77,5.11,19.4,2.26,2.74,10.79,3.53,14.65,6.84,2.51,2.16,3.39,5.34,5.52,7.48,4.88,4.87,10.15,4.08,16.54,3.96-3.92,5.28-7.71,6.36-10.48,14.02-3.77,10.42-1.73,29.68-16.52,31.98Z"/>
    <path class="st14" d="M520,511c-1.32-4.49-6.74-11.47-7.01-13.58-.16-1.27,1.04-9.85,1.45-11.49,3.05-12.41,17.24-12.48,27.92-17.08,11.02-4.74,20.7-12.02,31.64-16.85.11,4.98-1.48,9.45-1.04,14.55.73,8.47,14.26,20.65,19.86,28.13,4.83,6.45,9.27,13.27,13.18,20.32-2.6.2-4.84-1.55-8.27-.81-4.96,1.06-8.36,8.15-9.45,12.59-1.72,6.97,1.22,29.16-11.22,19.66-10.07-7.69-5.59-27.63-18.53-34.46-12.69-6.7-25.13,4.73-37.52,6.03.65-2.98-.33-4.7-1-7Z"/>
    <path class="st28" d="M733,528c-.26,10.87,1.68,21.41-.44,32.06-19.22,3.15-41.32,12.69-41.59,35.49-.07,5.83,1.5,12.37,1.08,19-.67,10.62-4.4,19.38-8.89,28.81,8.15,6.64,14.19,18.64,22.35,24.64,8.45,6.22,19.85,1.13,29.87,2.13,6.05.6,12.1,2.78,16.62,6.88l-1,1c-12.76-10.09-24.18-3.84-37.54-4.97-14.66-1.23-20.86-20.78-31.96-28.03-10.98,18.62-18.66,14.77-32.51,2.51-5.39-4.77-13.86-16.91-20.48-17.53-1.06-.1-3.07-.65-2.47,1.47,2.03,7.21,8.33,15.35,10.96,22.54-16.12-2.51-24.05,17.43-37.73,19.77-17.63,3.01-35.36-14.83-54.06-18.47-11.53-2.24-37.68-3.11-33.97,14.98,1.91,9.32,38.58,39.99,47.28,49.71,20.07,22.42,34.76,50.03,39.49,80.01-.05-.02-.24.86-.77.74-.23-.05-.73-1.71-1.23-1.74-5.33-29.47-20.01-56.52-39.97-78.53-11.21-12.35-40.41-34.34-46.25-47.75-.86-1.96-.42-4.7-.95-5.55s-10.73-4.65-12.58-4.92c-17.05-2.46-26.42,3.27-32.42,19.06-4.18,11-3.64,18.42,3.19,28.16-.34,1.52-8.59,2.44-9.04,7.06,7.97,22.84,17.51,45.92,18.02,70.45-6.83-1.24-16.12-6.06-22.04-.54-8.14,7.6.41,25.11-10.92,35.08-2.86,2.51-9.72,4.36-10.04,7.46-1.24-.66-1.38-2.08-2-3,5.44-2.64,12.46-5.46,14.9-11.6,3.36-8.43-.97-27.43,9.52-31.47,5.78-2.23,13-.11,18.56,2.07-1.06-23.68-10.09-45.97-18-68-16.67,14.67-22.57-6.47-38.43-3.94-6.25,1-12.6,8.03-20.15,8.86-8.94.98-18.63-5.7-26.93,2.05-1.63,1.52-4.17,7.88-5.16,8.09-5.49,1.15-8.2-7.75-14.6-5.89-2.17.63-5.24,5.5-5.72,7.83-.15-.48-1.03-1.2-1-2,.41-.79,2.58-5.74,2.55-6.07-.35-3.95-4.74-13.16-6.05-17.93-5.85-21.32-10.23-43.04-12.98-65.02-1.27-1.57-.99-.68-2.02.01-3.86,2.6-6.66,6.2-11.52,8.49-9.06,4.26-20.44,5.43-30.2,3.24-7.11-1.6-12.71-6.22-20.78-2.72,0-.08-.84-.61-1-1,14.67-4.51,14.37,1.2,26.75,2.74,13.02,1.62,32.74-4.24,38.24-17.32-1.36-14.45-4.45-28.84-2.52-43.44,1.31-2.17,19.37-7.03,23.21-8.79,1.59-.73,9.52-5.34,10.31-6.19.41.15.93,1,1,1-3.95,7.02-30.78,12.03-33.08,15.67-1.09,1.73-1.03,4.76-.94,6.8l4.45,39.59c1.02,1.47,5.2,1.04,7.05.92,13.22-.81,27.64-6.01,41.03-6.97,7.11-.51,26.32-2.95,24.49,7.44-.34,1.92-2.3,2.56-2,4.55,12.35-1.85,6.22,11.59,13.01,16.49,4.28,3.09,31.79,6.03,35.97,2.99,3.56-2.59,4.6-9.79,3.96-13.92-.92-5.9-8.02-12.9-9.47-18.53-1.89-7.36,2.47-14.54-1.46-20.54-1.43-2.17-4.51-3.61-5.78-6.22-7.18-14.79,15.68-31.51,20.77-44.27.85-.3,1.07-3.61,2-1-.87,1.52-1.25,3.79-2.58,5.92-4.33,6.94-18.35,23.26-19.35,29.64-1.85,11.74,7.26,11.32,8.54,19.42.52,3.31-.98,8.38-.64,12.56,1.04,12.93,16.22,20.84,7.58,35.5-2.17,3.68-5.97,4.33-6.41,5.58-3.05,8.57,6.09,10.75,12.6,8.6,6.47-2.13,7.76-9.57,12.33-13.67,9.35-8.39,27.64-6.83,37.93-.56,5.56-13.12-6.95-24.43-12.16-35.32-3.84-8.03-5.76-17.15-4.72-26.07.77-6.59,6.62-15.29,5.88-21.02-.45-3.49-7.41-11.63-9.5-15.57-5.63-10.56-7.92-22.62-8.47-34.52-.18-3.91,1.47-13.3.99-15.49-.24-1.08-2.5-.56-1.99-1.99,1.3-.68,2.73.96,2.99.99-.27,15.65-.39,31.83,6.14,46.36,2.82,6.26,11.44,15.55,11.82,21.26s-5.11,13.65-5.86,19.99c-2.79,23.85,13.83,32.41,17.9,53.4l14.77-5.24c4.52-9.33,4.77-33.57,12.87-39.63,2.6-1.95,9.65-2.9,10.7-5.37,1.26-2.95.91-10.56.22-13.83-1.85-8.72-11.4-13.15-12.54-25.45-1.5-16.2,5.84-25.04,19.98-30.49.38.19.79.96,1,1-13.82,5.43-21.14,16.11-18.76,31.26,2.09,13.27,15.71,17.47,12.7,35.18-1.29,7.58-8.26,6.53-12.31,9.69-6.89,5.35-8.13,29.29-11.63,37.86,11.6-.52,22.82,2.6,33.35,7.15,11.53,4.98,19.94,13.63,33.19,12.9,16.07-.9,21.76-19.91,38.45-20.05-10.84-16.51-13.58-36.35-19.73-54.76-8.52-25.47-16.07-24.61-40.25-15.23-3.25-7.56-3.19-16.39-5.02-24l1-3,5.04,23.97c18.92-5.38,29.9-10.94,38.72,10.76,4.84,11.89,7.02,25.95,11.33,38.17,3.09.15,5.32-.28,8.28,1.22,5.64,2.88,17.36,18.07,24.71,23.29,9.37,6.66,13.4,3.18,19.74-5.09,16.32-21.27,9.53-34.72,12.28-57.72,2.35-19.66,23.61-28.42,40.69-30.82,2.5-13.66.63-27.92,1.2-41.79l.99-8.99v19.99Z"/>
    <path class="st60" d="M342,544c-3.13-2.12-13.3-13.09-12.77-16.54.29-1.86,4.7-1.97,4.8-3.03l-2.01-49.43c5.51,4.03,10.54,7.97,17,10.52,1.16.46,3.8.36,3.95.52.5.51.84,10.1,2.54,13.97,2.3,5.24,8.72,9.1,9.5,14,1.14,7.18-2.15,12.88,2.57,19.93,6.72,10.05,25.32,21.3,32.95,32.04.78,1.01,2.62,2.72,2.02,4.04-.52,1.15-8.27,8.21-9.85,9.18-15.69,9.61-20.78-9.61-28.28-19.11-8.01-10.15-13.26-9.88-22.42-16.08Z"/>
    <path class="st60" d="M366,512c-2.27-7.74-13.56-13.76-11-25,5.19.33,10.65-.03,14.51-3.98l34.01,47.97c9.49,11.14,17.15.43,24.08,0,5.69-.35,10.98,15.11,9.41,20.02-3.38-.25-6.74.28-10.01,1-9.3,2.05-17.16,8.11-22.5,15.98-10.65-13.56-24.66-24.02-36.37-36.61-2.39-6.52-.13-12.56-2.13-19.37Z"/>
    <path class="st10" d="M519,513c-.24,1.41,1,4.7-1.46,3.97-6.5-1.92-14.82-9.07-21.31-11.7-4.8-1.94-11.41-1.65-14.23-3.27,15.11-12.21,31.28-7.7,37,11Z"/>
    <path class="st9" d="M293.99,472l-1.98,17,35.96-14.57,1.89,1.22c0,15.67.79,31.28,1.77,46.91-.24,1.82-3.34,1.93-3.65,3.15-1.39,5.44,5.83,9.25-4.27,14.49-13.41,6.96-24.81-11.1-41.22-9.21-10.59,1.22-1.16,11.3-9.23,12.84-6.56,1.25-22.82-5.92-30.87-6.7-7.42-.72-18.63.45-25.65,3.11-5.01,1.89-9.35,6.52-14,7.99-10.92,3.44-25.21-9.94-36.69-10.25-1.38-1.61,7.17-17.85,8.79-20.63,2.26-3.89,16.19-21.41,16.19-22.81,0-2.55-7.39-9.72-9.69-11.34-7.2-5.03-14.85-5.76-22.86-8.15-.72-.22-2.22.29-1.45-1.51.47-1.08,11.66-11.88,13.52-13.49,26.94-23.32,63.89-35.72,91.5-5.55,7.52,8.22,10.87,18.36,16.47,27.44l15.49-9.91Z"/>
    <path class="st68" d="M294.01,487l1.98-17.99-17.98,9.99c-6.05-19.82-20.69-36.85-41.03-42.51,1.89-3.49,2.46-8.24,4.57-11.43s9.73-6.84,10.04-8.98c.35-2.38-9.37-8.36-2.12-17.1,6.27-7.57,19.9-12.81,29.6-10.54,4.26,1,8.14,5.79,12.92,5.57.13-8-3.89-14.01-.49-21.99,1.53-3.59,6.74-8.64,10.95-8.03,8.55,1.24,22.61,38.19,27.1,45.98,5.09,5.52,11.12-1.52,14.7-.78,1.88.39,6.25,4.7,7.77,6.31l39.81,58.84c-6.39,13.47-10.94,3.92-18.25,4.69-3.28.34-6.33,4.32-9.76,5.32-12.98,3.78-23.77-5.96-33.14-13.16l-36.68,15.84Z"/>
    <path class="st0" d="M554,347.01c-2.61,7.45-10.35,10.78-13.5,17.99-2.62,5.99-2.15,16.27-3.98,20.02-1.18,2.41-12.19,4.01-10.61,11.88l-33.91,2.59c-2.39,1.16-2.26,10.05-3.97,14.03-7.38,17.13-10.69-11.39-16.5-11.51-3.73-.07-22.57,15.93-25.03,15.75-.93-.07-3.18-3.34-4.54-4.21-6.05-3.93-14.17-3.58-20.95-2.55.28-2.72,2.19-19.26,3.14-19.86,1.91-1.2,9.74,1.58,10.78-1.78.54-1.74-2.76-16.96-2.97-20.81-.29-5.35-.3-11.41,1.05-16.54,1.47-1.07,6.4,6.3,10.06,3.58.76-.56,3.39-14.23,4.98-16.55,30.49,5.88,60.24,10.13,91.49,9.01,4.58-.16,9.55-1.92,14.46-1.03Z"/>
    <path class="st14" d="M511.99,496.99c-1.26-.74-7.47-2.92-7.77-3.22-.7-.7-.96-5.09-1.73-6.77-2.04-4.45-8.19-10.15-5.98-14.98,1.5-3.28,8.21-5.69,10.98-13.04.94-2.51,2.68-17.33,2.1-18.04-.66-.81-3.77-1.12-5.65-2.39-3.99-2.69-4.88-8.23-8.44-11.56-2.84-2.66-6.9-4.22-10.49-5.5,4.8-5.78,7.81-12.9,6.99-20.51l33.51-2c2.28.43,5.32,6.58,8.01,8.99,14.06,12.57,38.16,16.5,40.32,40.43-.42,1.78-27.66,16.81-31.48,18.45-16.48,7.1-33.51,5.21-30.36,30.14Z"/>
    <path class="st60" d="M506.85,442.14c1.3,1.43-.23,14.06-1.35,16.85-2.41,6.02-10.94,10.13-11.51,13.56-1.09,6.58,7.68,13.64,8.01,20.44-4.36-.7-9.95,2.82-14.03,1.6-4.37-1.3-13.65-13.73-16.14-17.93-10.44-17.56-14.5-38.94-23.8-57.09l23.39-15.56c4.53,4.47,4.69,11.43,9.04,16.01,3.68,3.88,9.24,4.95,13.03,7.97,4.4,3.5,5.11,9.03,10,13.04,1.02.83,3.05.77,3.35,1.1Z"/>
    <path class="st14" d="M398,649c11.84-1.65,7.23,6.18,10.8,12.71,4.59,8.38,27.58,7.29,36.2,8.31-4.89,11.3,9.06,14.52,16.99,9.99-4.04,10.33-4.21,19.51,2.01,28.98-7.07,1.7-11.08,9.96-18.59,10.93-10.03,1.3-10.94-6.49-18.37-8.45-13.94-3.68-18.06,6.6-28.77,8.29-9.17,1.44-20.61-5.11-28.77,2.24-1.8,1.62-4.33,7.59-6.1,7.97-1.69.35-4.72-4.68-7.34-5.51-3.05-.97-7.32.77-8.09.15-1.49-1.18-9.46-31.26-10.47-35.59-1.27-5.44-9.11-43.4-7.49-45.02,15.47-.16,30.35-5.21,45.63-6.87,4.92-.54,21.5-2.79,23.92,1.87,1.64,3.16-1.91,6.61-1.55,10Z"/>
  </g>
  <g>
    <path class="st2" d="M579.88,370.15c0,.4-.15.84-.37,1.17-.53.29-1,.71-1.34,1.25-.83,1.3-.43,2.87.44,4.04,2.06,2.78,6.37,3.31,9.23,1.51,1.78-1.12,2.19-2.95.76-4.49l-.03-.12c.02-.5.07-1.01.21-1.49.31.24.63.49.91.77.04.04.04.12.05.13.1.24.16.49.18.76l.34,1.2c.59,2.2-1.11,3.98-2.88,4.95-.16.09-.21.17-.15.23v.06c-.34.13-.86.43-.54.84l-.04.11s-.08.07-.13.1-.09.05-.14.06c-2.49.43-5.14-.19-7.27-1.5l-.13-.2-.08-.09c.08-.94-1.11-2.08-2.05-1.91l-.11-.08s-.09.02-.13,0c-.15-.06-.98-1.86-.93-2.19l.1-.07c-.15.04-.13-.8-.11-.86l.11-.07c-.08.06-.17.13-.27.22l-.4.48h-.12s-.09-.15-.09-.15c.23-.84.51-1.66.84-2.46.83-.76,2.23-1.54,3.28-1.92.29-.1.58-.2.88-.27Z"/>
    <path class="st3" d="M592.56,379.21c-1.58,3.69-5.57,6.28-9.62,6.31s-8.01-2.56-9.67-6.2c-.36-1.39-.18-1.71.21-3.04.07.03.12.08.16.14,1.25,5.76,7.31,9.31,12.86,6.93,1.04-.45,1.92-1.08,2.8-1.74l.02-.15c.89-.59,1.56-1.26,1.41-2.41l.11-.05c0-.26.07-.51.22-.74.22-.85.42-1.7.61-2.54l.13.03c.58,1.14.76,2.17.75,3.47Z"/>
    <path class="st7" d="M591.6,360.34c.65.7,1.25,1.83,1.33,2.8.03.31.03.74-.05,1.04l-.1-.07c0-.3-.01-.61-.08-.9l.08-.1c-.26-.42-.46-.88-.59-1.36-.16-1.36-3.74-3.04-3.8-.91-.02.89-.14,1.75-.36,2.58-.03.05-.66.6-.72.63-.27.13-1.04.13-1.34.08l-.05-.11c-.81.02-2.07-.62-1.31-1.55.22-.99.45-1.98.71-2.95.03-.13.05-.26.04-.39-.03-.46-.99-.83-1.38-.95l-.03-.14.17-.09c2.1.27,4.33.59,6.21,1.59.41.31.84.57,1.29.8Z"/>
    <path class="st49" d="M574.23,374.31c.09-.09.15-.07.19.05.22,3.14,1.52,5.84,4.26,7.51,2.1,1.29,4.45,1.37,6.68.86l.26-.12c1.18-.09,2.34-.42,3.39-.96l.29-.03c-.22.18-.43.45-.68.63-5.25,3.95-12.35,1.65-14.66-4.35-.2-.52-.3-1.09-.49-1.61.22-.72.4-1.29.75-1.97Z"/>
    <path class="st34" d="M592.4,380.81c-1.81,3.02-5.42,5.28-8.99,5.28-.35.12-.73.13-1.12.04l-.12.07s-.04,0-.05,0c-.06.15-.39.11-.43-.05-.16.07-.23.05-.21-.05-.11.11-.2.03-.21-.11-.08.13-.13.09-.16-.05-.06.14-.1.14-.16,0-.08.13-.17.1-.16-.05-.16.11-.29.07-.37-.11-.1.11-.14.1-.16-.05-3.15-.98-6.11-3.04-6.98-6.4.29.27.43.69.65,1.03,1.58,2.48,4.12,4.28,7.01,4.87,4.21.87,8.58-1.23,10.87-4.77.26-.4.44-.9.76-1.24,0,.59-.08,1.04-.16,1.6Z"/>
    <path class="st8" d="M591.81,375.75c-.1.05-.09.15-.11.24-.14.71-.31,1.57-.52,2.25-.07.22-.3.57-.34.76-.08,0-.14-.06-.17-.19-.59.65-1.26,1.19-2,1.63l-.13-.06c-.08,0-.12-.08-.13-.23-.09-.12-.23-.2-.41-.25-.2.11-.56.14-.8.16-.15.03-.13-.07-.08-.16.09-.15.74-.48.93-.62,1.23-.9,2.29-2.09,2.19-3.73-.05-.9-.58-1.72-.53-2.64.86.89,1.51,1.72,2.08,2.83Z"/>
    <path class="st52" d="M592.4,380.81c-.15,1.15-.17,1.78-.93,2.72-2.18,2.7-6.04,3.26-9.3,2.67,0-.19-.03-.15.13-.16.24-.02.43.06.64.06.18,0,.31-.1.48-.11.39-.03.8.02,1.22-.06,2.98-.54,5.42-2.11,7.25-4.48.16-.21.26-.56.51-.64Z"/>
    <path class="st13" d="M574.98,374.95l.06.13c-.37,1.48.51,3.12,1.49,4.21,2.11,2.35,5.51,3.41,8.59,3.35l.25.1c.03.13-.07.12-.16.13-2.36.45-4.34.41-6.47-.84-2.81-1.65-4.13-4.31-4.4-7.49,0-.1.02-.2-.11-.24.4-.79.84-1.38,1.49-1.97.1.05.04.18.02.25-.2.78-.71,1.51-.76,2.36Z"/>
    <path class="st64" d="M591.28,360.02c.14.12.2.19.32.32-.11,0-.2,0-.31-.04-.38-.16-.94-.65-1.38-.86-1.49-.72-4.32-1.25-5.99-1.39l-.14.09c-.89-.09-1.8-.11-2.69.07l-.05.14c-.8.45-1.39,1.24-1.73,2.09l-.13.06c-.26.64-.46,1.45.27,1.86.8.35,1.55.79,2.23,1.3.21.16.3.33.27.52.15.02.23.14.26.37l.19,1.06-.07.12.31.37-.05.11s-.07.04-.11.05c-.48.12-2.26-1-2.74-1.31-.07.04-.15.02-.24-.07-.1-.14-.19-.28-.27-.43.04-.32.53-.1.72.06.15.16.32.3.51.42.13-.01.26.05.4.18.17.05.29.13.35.25,1.46.41-.35-1.34-.67-1.63l-.29-.34c-.12.1-.21-.03-.16-.16l-.18-.04c-.42.23-1.08-.41-1.25-.76-.4-.84.53-2.96,1.27-3.47.5-.56,1.07-.92,1.81-1.12,1.51-.62,3.12-.36,4.66-.02,1.74.39,3.59.87,4.88,2.2Z"/>
    <path class="st40" d="M582.59,366.2h.16c1.94,1.3,4.67,1.34,6.87.94.38-.04.73.06.49.49-.33.6-2.3.68-2.82.68-2.5-.01-5.14-.92-6.98-2.54-.28-.28-.57-.59-.8-.91l.27-.03c.88.56,1.79,1.13,2.82,1.36Z"/>
    <path class="st56" d="M582.59,366.2c-.11-.11-.21-.33-.27-.48.15-.02.3.03.45.16.29.1.49.24.61.43.09-.02.17,0,.25.03.84.38,1.38.62,2.32.75,1.19.16,2.45.07,3.57-.33.03-.13.08-.24.15-.34-.07-.08-.04-.1.05-.05.12.26.35.31.7.14l.1.07c.14-.04.15.06.13.18-.17.38.09.37.4.33l.05.12c-.51.38-1.25.79-1.86.96-.03.1-.06.11-.11.05l-.07.13c-.05.02-.85.19-.91.18-.04,0-.07-.05-.09-.09-.04.03-.07.05-.11.07-.24.12-1.46.03-1.82,0-1.33-.12-2.48-.53-3.7-1.05l-2.35,8.62-.12.03c-.14.07-.18.03-.11-.11l-.06-.17,2.33-8.52c-.33-.2-.66-.43-.98-.67v-.14c-.13.09-.18.04-.16-.11-.25-.2-.47-.42-.69-.64l1.53,1c2.13,1.1,4.54,1.69,6.95,1.33.42-.06,1.17-.19,1.3-.68.11-.4-1.31-.03-1.45,0-1.54.18-4.88-.06-6.04-1.22Z"/>
    <path class="st69" d="M581.74,357.83c.09-.12.26-.11.38-.16,2.45-1.01,5.89-.17,7.99,1.3.44.31.85.6,1.17,1.05-1.09-.92-2.44-1.5-3.83-1.84-2.02-.5-3.63-.9-5.7-.34Z"/>
    <path class="st12" d="M592.29,362.63s.04-.03.06-.04c.14-.04.36.4.42.52.09.27.12.77.11,1.07-.03.85-.44,1.78-1.07,2.35-.09.04-.15.01-.14-.08.39-.58.32-.68-.21-.29-.22.07-.25-.04-.13-.21-.04-.03-.06-.06-.05-.11.25-.38.77-1.24.35-1.61-.03-.03-.06-.06-.08-.1-.09-.06-.09-.11,0-.17.19-.13.52.14.54.35.15-.5.17-1.04.12-1.55l.09-.12Z"/>
    <path class="st30" d="M579.93,358.95c-.61.68-1.04,1.42-1.21,2.33-.03.13-.1.57-.09.68.02.45.62,1.07,1.04,1.18.21.05.2-.08.43.08l-.07.1c-.47.03-.25.67-.02.9l.48.57-.02.13c-.44-.07-.74-.71-1.23-.48-.8-1.42-.98-2.96-.19-4.43.2-.37.5-.87.88-1.07Z"/>
    <path class="st38" d="M580.41,385.77l.11.06c-.18.87-.36,1.74-.54,2.61l.07.05.62-2.57.12-.04c.05.02.11.04.16.05l.07.03c-.21.93-.39,1.82-.52,2.67l.03.12c.08-.12.13-.08.16.05.02-.05.04-.05.05,0,.09.02.64-.05.69-.1,0-.12.06-.18.16-.17.05.18.2.25,0,.4-.3.22-1.12,0-1.46-.14-.39-.17-.99-.58-.35-.88l.48-2.2c.05.02.11.04.16.05Z"/>
    <path class="st43" d="M581.69,386.15c.12.03.29.03.43.05-.23.76-.31,1.59-.53,2.35-.02.06-.07.26-.09.27-.11.07-.63.09-.77,0,.05-.14.11-.14.16,0,.07-.07.1-.16.12-.29l.51-2.36s.1-.03.16,0Z"/>
    <path class="st40" d="M591.81,366.52c-.13.25-.46.52-.69.69-.19-.08-.34.1-.54-.08-.22-.2.08-.36-.05-.56v-.12c.24-.16.47-.35.68-.55l.12.03c.02.1-.09.19.09.11.12-.05.54-.37.63-.22.02.22-.18.43-.28.62-.01.03.04.07.04.07Z"/>
    <path class="st40" d="M581.16,366.52l.07.13-2.29,7.36-.12.03s-.08.03-.12.01c-.17-.08.26-1.58.49-1.72-.06-.35.07-.76.32-1.01.12-.39.25-.78.37-1.17.38-1.24.77-2.48,1.12-3.73.03.02.1.06.16.11Z"/>
    <path class="st61" d="M588.77,372.01c-.06.5-.15,1-.21,1.49l.09.15c-.05.78-.16,1.56-.32,2.32l-.14.09-.1-.05c.31-2.58.63-5.16.96-7.74l.1-.05s.07-.04.11-.05c-.13,1.28-.31,2.56-.48,3.84Z"/>
    <path class="st66" d="M574.98,374.95c.06-.14.48-.62.61-.7.09-.06.1,0,.19,0v.93c0,.57.63,1.78.96,2.27.16-.01.24.06.16.21.14-.02.16,0,.05.11l.04.05c-.06.11-.08.2-.04.32h.08c.11.53,1.02,1.6,1.56,1.18l.07.04c.01-.05.03-.05.05,0,.06-.15.31.01.27.16.22.12.43.25.65.37,2.12,1.18,4.59,1.62,7.02,1.17.02-.16.18-.17.27-.05l.09-.07c.18.06.31.03.4-.09.42-.05.67-.22.77-.5l.12-.03c.03-.14.06-.14.11,0,.06-.01.11-.01.16.05.4-.17.95-.58,1.28-.88.14-.13.82-.95.96-.83l.05.32c-.03.17.02.38,0,.56-.16,1.21-.73,1.37-1.54,2.05-1.22.68-2.52,1.05-3.94,1.12-3.58.18-7.79-1.32-9.74-4.46-.51-.82-1.07-2.41-.65-3.32Z"/>
    <path class="st53" d="M579.5,371.32c-.1.34-.22.68-.32,1.01-.47.53-.74,1.02-.72,1.75.07,3,3.95,4.73,6.58,4.34.65-.1,1.35-.27,1.6-.91-.04-.14.17-.28.27-.16l.04-.15c.45-.26.88-.58,1.1-1.07l.14-.06c.24-.7.27-1.78.37-2.56.33.09.61.69.74.99.96,2.29-.97,3.78-2.93,4.41-2.44.78-5.23.33-7.13-1.43-1.72-1.59-2.42-4.11-.43-5.81.15-.13.5-.45.69-.35Z"/>
    <path class="st54" d="M578.97,379.53c-.06-.03-.25-.15-.27-.16,0-.82-.84-1.79-1.71-1.64l-.1-.07c-.05-.07-.11-.14-.16-.21.75-.25,1.49.45,1.92.99.22.27.48.74.32,1.09Z"/>
    <path class="st41" d="M588.03,379.91c.25.05.39.18.44.39l-.07.04s-.08,0-.11,0c-.26-.44-2.1.14-1.32.53.07.09.04.13-.06.16-.09.03-.18.04-.27.05-.41-.47.18-.84.59-1.01.25-.11.52-.18.8-.16Z"/>
    <path class="st47" d="M583.93,358.04c.3.17.67.2.96.4.05.04.44.38.47.41.27.34-.13,1.2-.22,1.59-.13.59-.23,1.49-.43,2.02-.1.26-.31.36-.24.72.04.2.79.72,1,.76.15.03.33-.04.44.07l-.13.1c-.6-.02-1.19-.12-1.76-.29-.32-.09-.64.05-.91.2l-.12-.02-.04.12c-.11.07-.9.18-.98.04-.54-.91-1.59-1.15-2.41-1.66s-.72-1.19-.36-2.02l.08.11c-.15.48-.36,1.24.19,1.54s2.26.57,2.52-.21l.4-1.67c.79-1.57.67-2.05-1.16-1.97l-.11-.1c.82-.36,1.96-.24,2.82-.16Z"/>
    <path class="st55" d="M592.77,363.11c-.06-.18-.33-.35-.48-.48l-.11-.03c-.08-.33-.17-.67-.3-.98-.23-.58-.41-.8-1.01-1.02-.28-.1-.67-.2-.75.2-.01.75-.09,1.5-.22,2.23-.35,1.91-1.63,2.3-3.46,2.17l-.1.1c-.73-.12-1.45-.15-2.17-.08-.33-.06-.6.65-.54.85.04.14.88.53,1.06.58,1.51.44,3.42.5,4.84-.24l.16.02c.05.46-.07.45-.44.55-2,.57-4.04.28-5.85-.66l-.09-.09c.12-.63.09-1.23-.09-1.8-.13-.14-.21-.28-.25-.41,0,0,.05-.09.12-.12.2-.07.44-.21.65-.21.32,0,.91.21,1.29.26.31.04.56.05.87.06s.96.05,1.23-.02.41-.3.58-.48c.06-.07.2-.11.24-.18.03-.06.15-.71.17-.84.12-.68.1-1.58.24-2.21.03-.12.21-.32.31-.38.71-.46,2.24.18,2.85.66.72.58.91,1.74,1.25,2.56Z"/>
    <path class="st73" d="M581.48,386.09s.07.03.07.03c-.15.78-.33,1.65-.53,2.41,0,.13-.05.22-.12.28-.04,0-.11,0-.16,0-.02,0-.04,0-.05,0l-.07-.03c.17-.92.36-1.83.56-2.75l.09-.04c.15.04.2.1.21.11Z"/>
    <path class="st50" d="M581.1,385.93l.06.03c-.17.92-.35,1.83-.55,2.75l-.09.04c-.1-.05-.17,0-.16-.18l.58-2.65s.12-.01.16,0Z"/>
    <path class="st45" d="M581.26,385.99l-.59,2.83c-.06,0-.11-.03-.16-.05l.59-2.83c.06.02.11.04.16.05Z"/>
    <path class="st35" d="M581.69,386.15c-.15-.03-.1.08-.12.17-.21.82-.33,1.67-.57,2.47-.03.03-.07.02-.11.02l.59-2.72c.07.02.14.04.21.05Z"/>
    <path class="st20" d="M588.56,380.39c-.27.12-.11,0-.16-.05.02-.16,0-.24-.16-.3-.12-.04-.25.03-.21-.13.37.02.44.12.53.48Z"/>
    <path class="st39" d="M579.19,360.5c.27-.84,1.1-1.94,1.92-2.29.55-.05,2.03-.07,1.85.81-.06.31-.39.94-.5,1.32-.13.43-.21.89-.33,1.32-.07.26,0,.36-.25.6-.51.48-1.49.29-2.11.13-1.01-.25-.84-1.09-.58-1.89Z"/>
    <path class="st71" d="M582.97,364.02c.73.47.48,1.55.43,2.29-.36-.19-.74-.34-1.07-.59-.17-.48-.12-1.11-.37-1.55.29-.05.75-.07,1.01-.16Z"/>
    <path class="st11" d="M580.09,363.22c.09.06.1.11.16.16l.31.37c.34.32,2.07,1.99.65,1.61-.3-.07-.53-.21-.75-.43-.18-.18-.74-.84-.79-1.05-.07-.35-.02-.71.41-.65Z"/>
    <path class="st19" d="M581.21,365.35c.85.19.5-.31.16-.72s-.87-.75-1.12-1.25c.34.31.91.87,1.2,1.23.38.46.69,1.18-.24.75Z"/>
    <path class="st15" d="M579.98,376.12l2.4-8.8c.32.12.66.24.97.38,1.62.7,2.96.79,4.73.74l.1.05-1.25,8.66c.05.08.06.12-.02.19-.09.05-.16.11-.27.16-.29.35-.94.47-1.39.54-1.23.19-2.83-.25-3.92-.82-.31-.16-1.22-.7-1.32-.98-.01-.04-.02-.08-.03-.13Z"/>
    <path class="st1" d="M581.16,366.52c.12.09.23.21.31.27.13.09.78.39.8.5l-2.38,8.72c-.35-.09-.64-.59-.82-.92-.16-.29-.4-.76-.25-1.05l2.34-7.52Z"/>
    <path class="st24" d="M586.43,365.19c.89-.03,1.76-.01,2.62.05.49-.03,1.19.39.89.91.1.13-.09.31-.21.21-.02.02-.04.04-.05.05-1.09.81-3.65.75-4.92.36-.26-.08-1.13-.45-1.24-.68-.06-.13.15-.74.25-.84.05-.05.24-.11.32-.14.56-.18,1.69.02,2.33.07Z"/>
    <path class="st51" d="M589.15,368.23l-.96,7.84c-.21.59-.74.98-1.28,1.28l-.09-.17,1.26-8.73c.06,0,.98-.19,1.07-.21Z"/>
    <path class="st16" d="M579.19,372.33c-.1.32-.44,1.32-.43,1.58,0,.07.05.11.06.13.13.78.53,1.41,1.07,1.97.04.04.07.07.11.11.81.79,1.74,1.26,2.82,1.57,1.4.41,2.45.45,3.84-.19.12.34-.37.66-.64.77-2.65,1.04-7.09-.67-7.6-3.7-.13-.8.01-1.83.78-2.25Z"/>
    <path class="st44" d="M591.33,365.94c-.1.13-.65.57-.8.64-.26.12-.92.27-.8-.21.1-.08.15-.16.21-.21l.05-.17c.64-.5,1.07-1.09,1.4-1.83l.15-.03c.4-.08.35.52.31.77-.03.21-.39.87-.53,1.04Z"/>
    <path class="st58" d="M592.29,362.63c.07.37.05.87,0,1.25-.03.22-.07.62-.31.67.03-.28-.04-.5-.34-.53-.06.01-.06.07-.09.1-.21.31-.34.71-.59,1.04-.3.4-.64.68-1.01.99.07-.28-.21-.66-.46-.73-.29-.08-.89-.1-1.21-.12-.61-.04-1.24-.06-1.84-.11.85-.04,2.03-.07,2.66-.72.08-.08.48-.62.52-.71.17-.46.32-1.79.38-2.34.04-.36-.13-.86.32-1.01.35-.11,1.09.28,1.33.54s.57,1.3.64,1.68Z"/>
    <path class="st42" d="M588.3,380.33s-.09.28-.1.29c-.18.22-.5.24-.74.33-.06.02-.06.11-.1.12-.09.02-.38.01-.44-.05,0,0,.02-.07-.01-.09-.1-.08-.27-.11-.25-.29.07-.47,1.69-.86,1.64-.31Z"/>
    <path class="st5" d="M576.89,377.67c.17-.06.32-.07.49-.04.4.07,1.16.78,1.3,1.15.08.19.11.41.01.6-.01,0-.04,0-.05,0-.11.03-.16.02-.09-.08l-.11-.17c0-.22-.03-.42-.12-.61-.28-.29-.7-.69-1.12-.58l-.11-.06s-.03.05-.05,0c-.1.05-.15,0-.11-.11-.02-.03-.03-.08-.05-.11Z"/>
    <path class="st46" d="M577.11,377.88c.14,0,.17.07.05.16.12.53.59,1.04,1.14,1.22-.05-.13-.06-.27-.03-.43-.13-.18-.17-.31-.1-.41.06-.01.11.02.16.11.33.31.1.53.32.85-.1.02-.11.17-.28.15-.59-.06-1.3-.82-1.43-1.38-.04-.13-.05-.35.11-.27.01,0,.04,0,.05,0Z"/>
    <path class="st63" d="M577.05,377.88c-.12.07-.12.13-.11.27-.03-.12-.12-.22,0-.37.02.03.1.05.11.11Z"/>
    <path class="st70" d="M579.97,363.33c.17-.04.36.35.47.48.24.26,1.06.98,1.14,1.27.02.08.03.15-.04.2-.35.24-1.29-.7-1.49-.96-.17-.22-.48-.87-.07-.98Z"/>
    <path class="st59" d="M591.52,364.44c.23-.08.2.31.18.45-.06.58-.92,1.5-1.49,1.6-.14.03-.23.02-.22-.16,0-.09.71-.7.85-.86.28-.32.49-.65.67-1.04Z"/>
    <path class="st26" d="M587.64,380.18c.41-.04.52.21.17.44-.17.11-.76.3-.88.08-.14-.27.51-.5.71-.52Z"/>
    <path class="st63" d="M578.33,378.52s-.11-.07-.16-.11l-.14.03c-.25-.22-.47-.33-.81-.27l-.06-.13s-.06-.11-.05-.16c.06-.03.14-.09.19-.09.28-.02.93.46,1.03.73Z"/>
    <path class="st36" d="M578.17,378.41c.03.16.18.24.2.41.03.26-.17.27.17.47-.1.14-.27.07-.4.03-.34-.11-.95-.71-1.03-1.06-.03-.15.04-.19.04-.23.17.07.28-.03.48.02.15.04.4.25.53.35Z"/>
    <path class="st57" d="M581.32,365.14s-.47-.2-.53-.24c-.32-.23-1.03-.95-.72-1.36.19.25.37.51.58.75.1.11.83.67.67.85Z"/>
    <path class="st31" d="M591.54,364.87c.13.39-.95,1.44-1.2,1.44-.03,0-.12-.09-.03-.13l1.23-1.31Z"/>
    <path class="st23" d="M587.48,380.34c.45-.09.29.31-.12.31-.35,0-.12-.26.12-.31Z"/>
    <path class="st4" d="M578.17,379.11c-.13.13-.98-.71-.85-.85.32-.11.54-.02.75.24.23.28.04.32.1.62Z"/>
  </g>
</svg>