<?xml version="1.0" encoding="UTF-8"?>
<svg id="Outer_Orange_Circle_xA0_Image" xmlns="http://www.w3.org/2000/svg" version="1.1" viewBox="0 0 432 216">
  <!-- Generator: Adobe Illustrator 30.0.0, SVG Export Plug-In . SVG Version: 2.1.1 Build 123)  -->
  <defs>
    <style>
      .st0 {
        fill: #fbbd2a;
      }

      .st1 {
        fill: #ffc30b;
      }

      .st2 {
        fill: #1a160d;
      }

      .st3 {
        fill: #fefefe;
      }
    </style>
  </defs>
  <path class="st2" d="M205.64,4.61c3.59.12,7.21-.16,10.8,0,23.15,1.04,45.73,10.84,61.78,27.59,13.61,14.2,25.06,26.24,31.23,45.54,10.34,32.36,2.03,66.04-17.34,92.89-19.04,26.38-52.31,42.16-84.9,40.57-25.34-1.24-55.46-16.01-71.6-35.46-14.56-17.56-21.95-36.28-23.28-59.2-.18-3.17.53-6.07.48-9.12-.12-6.57,1.75-12.77,3.3-18.77.11-.41-.02-.8.04-1.13.05-.3.64-.06.74-.14.15-.13-.96-2.07.48-1.68-.67-1.19.58-2.41.97-3.47,14.69-39.89,49.38-73.44,94.62-69.95,18.89,1.46,34.03,6.56,50.33,15.88,1.9,1.09,14.45,10.15,15.52,9.31-.64-1.19-1.77-2.18-2.75-3.12-15.35-14.87-31.58-21.2-52.2-25.05-1.8-.34-3.1-.77-4.66-.83-1.32-.05-3.61.02-4.77-.26-.2-.05-.16-.47-.29-.49-.57-.07-3.03,1.54-3.11-.23l-10.56,1.21c-1.86-.24-4.79.36-6.89.77-27.49,5.37-50.27,19.39-65.38,43.06-6.35,9.95-12.61,20.69-14.41,32.62-.53,3.52-.4,7.25-1.3,10.7-.12.44-.05.8-.64.66-.31-3.64-.08-7.25.54-10.86,4.08-23.72,18.06-46.71,37.38-60.98,14.68-10.84,36.72-18.95,54.92-20.06.08,0,.16,0,.24,0,.02,0-.08.25.36.25l.36-.25ZM226.03,8.69s-.11.38.17.47c.38.13,2.65.48,3.07.49.74,0,1.47-1.03,1.79-.72.45.44-.42.7-.48.96,1.63.1,3.24.92,4.74,1.38,8.83,2.67,16.55,4.92,24.51,9.8,5.8,3.55,13.87,9.46,18.38,14.48.54.6,1.52,1.65,1.55,2.41-.56.82-3.83-.93-4.56-1.31-4.23-2.23-8.16-5.72-12.31-8.08-16.31-9.28-31.58-14.39-50.42-15.79-27.83-2.08-54.01,11.2-71.61,31.79-8.39,9.82-15.25,20.89-20.15,32.87-.92,2.24-2.39,5.71-2.87,7.73-.53,2.2-1.21,3.12-1.67,5-.1.42.08.95-.02,1.38-.02.11-.76,1.15-.85,2.08-.05.6.26,1.26.15,1.8-.06.28-.69-.03-.75.25-.19.95,1.03,3.04-.46,2.75-.15.13,1.19,2.08-.24,2.16-.11.39.33.16.42.27.64.84-.61.63-.66.68-.08.08.48,1.59.48,2.04,0,.83-.48,1.91-.22,2.87-.05.29-.65.05-.74.13-.11.09.33,2.02.25,2.77-.53,4.66-.72,8.06-.24,12.95,2.95,30.41,21.24,59.21,48.06,73.83,14.29,7.78,29.92,13.77,46.34,14.59,1.12.06,3.04.15,4.09.02.46-.06.26-.74,1.15-.5.2.06-.06.6,1.25.5.69-.05.83-.72,2.4-.52.46.06.32.48.44.47,8.18-.4,20.33-3.1,27.71-5.62,16.39-5.6,34.54-18.24,44.97-32.04,20.36-26.94,28.7-58.06,20.22-91.45-4.02-15.86-12.11-27.2-22.84-39.06-9.69-10.72-18.82-20.07-31.75-26.84-22.61-11.83-48.64-13.46-73.01-6.2-28.81,8.58-49.21,25.67-62.05,52.87-1.98,4.19-4.1,8.71-4.83,13.29l2.6-6.64c.67-1.38,1.48-2.7,2.17-4.07.52-1.03.17-1.73,1.47-2.13-.94.14.14-2.03.36-2.28.31-.36.87-.09,1.11-.39.26-.33.65-1.54.98-2.08,9.65-15.72,19.86-28.06,36.25-37.16.47-.26,2.91-1.25,3.03-1.42.04-.06-.36-.8-.22-.93.04-.04.38.07.51-.03.34-.23.12-.48.8-.48.82,0,.57.57.72.51.46-.19,3.05-1.39,3.24-1.56.52-.47-.22-1.39,1.05-1.08.27.07,0,.59.39.48,0-.87-.27-1.47.81-1.2.27.07,0,.59.39.48-.11-.9-.69-1.89.67-1.37.02,0,.27.36.29.41-.39-.38.57-1.35.96-.96.5.5-.46,1.46-.96.96.07.12-.14.49.14.49.55,0,1.4-.69,2.02-.74.06-.5-.84-.11-.96-.24-.03-.03-.02-.91.02-.94,1.51-.42,3.03-.88,4.53-1.35.99-.31,1.71-.5,2.71-.84,5.12-1.74,11.43-3.69,16.98-3.58,0-.24-.01-.48,0-.72.79.26,1.99-.24,2.52-.24h3.72v.72c-.1.1-1.58-.1-2,0-.18.05-.15.47-.31.49-.49.06-3.03-.23-3.93-.25-.01.32,0,.64,0,.96,1.37-1.05,2.15-.43,3.47-.47,1.23-.03,2.36-.35,3.59-.24.59-1.3.67-1.71,2.3-1.45v.72s-1.44,0-1.44,0c-.07.33.5.35.71.36.43.03,1.5.11,1.82.09.73-.04,2.12-.52,3.11-.48.75.03,1.12.53,1.65.51s1.06-.48,1.7-.48c1.66,0,3.02.89,4.59.94,2.01.07,2.58.47,4.56.71.51.06,2.36-.05,2.49.03-.43-.2-.49-1.73.72-1.2v1.2c-.21-.04-.59.06-.72,0ZM112.32,93.63c.39-2.46.67-4.94.72-7.44-.33.14-.4,1.22-.45,1.59-.2,1.49-.39,3.27-.51,4.77-.02.26-.19,1.12.23,1.07Z"/>
  <path class="st3" d="M205.64,4.61l-.36.25c-.44,0-.34-.25-.36-.25h.72Z"/>
  <path class="st1" d="M172.05,14.69s-.27-.4-.29-.41c-1.36-.52-.78.47-.67,1.37-.39.1-.12-.42-.39-.48-1.08-.26-.81.33-.81,1.2-.39.1-.12-.42-.39-.48-1.27-.31-.53.61-1.05,1.08-.19.17-2.78,1.37-3.24,1.56-.15.06.1-.5-.72-.51-.68,0-.46.25-.8.48-.14.09-.47-.02-.51.03-.14.13.26.88.22.93-.12.17-2.56,1.16-3.03,1.42-16.39,9.1-26.6,21.45-36.25,37.16-.33.54-.72,1.75-.98,2.08-.24.3-.8.03-1.11.39-.22.25-1.3,2.42-.36,2.28-1.29.4-.95,1.1-1.47,2.13-.69,1.37-1.5,2.69-2.17,4.07l-2.6,6.64c.73-4.57,2.85-9.09,4.83-13.29,12.85-27.19,33.24-44.28,62.05-52.87,24.38-7.26,50.4-5.63,73.01,6.2,12.93,6.77,22.06,16.12,31.75,26.84,10.73,11.86,18.81,23.2,22.84,39.06,8.47,33.39.13,64.5-20.22,91.45-10.43,13.8-28.59,26.44-44.97,32.04-7.38,2.52-19.54,5.22-27.71,5.62-.12,0,.01-.41-.44-.47-1.57-.2-1.71.46-2.4.52-1.31.1-1.05-.44-1.25-.5-.89-.24-.68.44-1.15.5-1.05.13-2.97.03-4.09-.02-16.42-.82-32.06-6.81-46.34-14.59-26.82-14.61-45.11-43.42-48.06-73.83-.47-4.89-.29-8.29.24-12.95.09-.75-.35-2.68-.25-2.77.09-.08.68.16.74-.13-.26-.96.23-2.04.22-2.87,0-.45-.56-1.96-.48-2.04.05-.05,1.31.16.66-.68-.09-.11-.53.12-.42-.27,1.43-.08.09-2.03.24-2.16,1.5.28.27-1.8.46-2.75.06-.28.69.03.75-.25.11-.55-.2-1.21-.15-1.8.08-.92.82-1.96.85-2.08.09-.43-.09-.96.02-1.38.47-1.89,1.15-2.8,1.67-5,.48-2.01,1.95-5.49,2.87-7.73,4.9-11.97,11.77-23.05,20.15-32.87,17.59-20.59,43.78-33.87,71.61-31.79,18.84,1.41,34.11,6.51,50.42,15.79,4.15,2.36,8.08,5.86,12.31,8.08.73.38,4,2.13,4.56,1.31-.03-.76-1.01-1.81-1.55-2.41-4.51-5.02-12.58-10.93-18.38-14.48-7.96-4.88-15.67-7.13-24.51-9.8-1.5-.45-3.11-1.27-4.74-1.38.05-.26.92-.52.48-.96-.32-.31-1.06.73-1.79.72-.43,0-2.7-.36-3.07-.49-.28-.09-.15-.46-.17-.47.13.06.51-.04.72,0v-1.2c-1.21-.53-1.15,1-.72,1.2-.12-.08-1.98.03-2.49-.03-1.98-.24-2.55-.64-4.56-.71-1.56-.05-2.92-.95-4.59-.94-.65,0-1.18.47-1.7.48s-.89-.48-1.65-.51c-.99-.04-2.38.44-3.11.48-.32.02-1.39-.06-1.82-.09-.22-.01-.79-.04-.71-.36h1.44s0-.72,0-.72c-1.63-.26-1.71.15-2.3,1.45-1.23-.12-2.36.21-3.59.24-1.32.04-2.1-.58-3.47.47,0-.32-.01-.64,0-.96.9.02,3.44.31,3.93.25.16-.02.13-.44.31-.49.42-.1,1.9.1,2,0v-.72h-3.72c-.53,0-1.73.5-2.52.24-.01.24,0,.48,0,.72-5.55-.11-11.86,1.84-16.98,3.58-1,.34-1.72.53-2.71.84-1.5.47-3.02.93-4.53,1.35-.03.04-.05.91-.02.94.12.13,1.02-.26.96.24-.62.04-1.47.73-2.02.74-.28,0-.07-.37-.14-.49.5.5,1.46-.46.96-.96-.39-.39-1.34.58-.96.96ZM220.03,6.53v.72s1.2,0,1.2,0v-.72s-1.2,0-1.2,0ZM237.5,9.5l-.74.16.34,1.57.74-.16-.34-1.57ZM248.29,24.81c-.21-.36-6.56-3.54-7.46-3.93-25.68-11.01-60.17-6.22-81.67,11.73-1.17.98-.76,1.57-1.01,1.87-.78.92-4.97,2.85-6.33,3.77-4.16,2.81-8.89,8.37-11.3,12.7-.45.81-.79,1.37-.62,2.38.48.07.81-.13,1.19-.37,1.71-1.1,4.3-4.26,6.01-5.75,7.78-6.79,18.99-14.04,27.91-19.35.89-.53,2.45-.64,2.32-1.88l-.96-.24c4.75-1.59,9.46-3.53,14.34-4.73,13.23-3.27,29.33-1.89,42.65.39,1.25.21,2.44.09,3.7.74.06.4-.58.26-.83.24-.92-.1-6.58-1.22-6.84-.96-.03.03-.03.53.05.67s2.52,1.36,2.9,1.53c2.63,1.17,5.62,2,8.3,3.22,13.82,6.28,30.71,17.52,39.95,29.63,2.04,2.68,3.88,6.25,5.94,8.71.24.29,1.1,1.23,1.51,1.11.5-.15.36-.84.25-1.2-.61-2.18-2.85-6.58-3.93-8.79-7.72-15.73-17.65-22.24-33.39-28.98-2.02-.86-4.12-1.68-6.23-2.29-.06-.42.54-.24.78-.18.62.14,3.53,1.33,2.76,0ZM183.81,28.37c-.23-.23-5.64,1.36-6.43,1.6-2.77.85-7.69,2.46-9.75,4.4-.44.41-.97.72-.85,1.43.54.07,1.01-.12,1.5-.29,2.6-.89,5.72-2.75,8.4-3.83,1.88-.76,5.16-1.43,6.71-2.4.34-.21.65-.66.41-.91ZM231.75,30.24c-.14.07-2.58-.87-2.95-.89-4.72-.24-9.58-.72-14.42-.51-7.28.31-16.58,2.24-23.67,4.16-.73.2-2.49,1.08-2.96,1.13-.09,0-.55-1.43-.98.26-9.54,3.58-19.51,7.77-27.55,14.14-1.33,1.06-3.14,3.13-4.45,3.94-.5.31-1.35.35-1.4.4-.06.06-.03.68-.25,1.06-.45.76-2.32,2.4-3.02,3.22-8.33,9.83-13.05,17.86-17.43,30.07-6.87,19.14-3.62,41.96,6.51,59.31,17.54,30.04,54.21,46.88,88.57,39.87,34.56-7.05,63.26-40.86,64.96-76.11.22-4.64-.02-12.74-.71-17.24-.02-.13-.77-.09-.49-1.2.03-.1,1.46-.91-.24-.88.6-1.25-.12-1.05-.28-1.52-1.43-4.3-2.11-8.16-4-12.55-.66-1.53-2.36-4.17-2.74-5.43-.12-.4.14-1.32.06-1.37-.11-.07-.63.11-.91-.05-.23-.13-2.59-4.18-2.75-4.57-.18-.44-.14-1.26-.23-1.35-.07-.07-.45.05-.69-.18-.75-.69-2.98-4.78-3.96-6.06-1.84-2.4-4.89-4.97-6.45-7.23-.25-.36-.34-1.08-.41-1.15-.11-.1-.66-.04-1.04-.27-1.64-1.01-3.3-2.98-4.74-4.02-.95-.68-3.36-1.62-4.24-2.35-.35-.29-.41-.98-.52-1.04-.26-.16-.86.04-1.24-.04-.12-.02-1.54-1.27-1.8-1.42-5.36-3.13-10.83-5.82-16.54-8.1-1.04-.41-2.51-.59-3.43-1.13-.44-.26-.8-.87-.86-.88-.27-.03-.66.29-.91.23-.3-.07-.15-.62-.73-.71-1.22-.19-1.05.42-1.12.45ZM262.25,43.72c.44-.43-.78-1.57-1.44-1.2-.58.95,1.14,1.49,1.44,1.2ZM280.44,44.26c-.87-.51-.81.6-.45,1.21.19.32,1,.6,1.29.88,1.46,1.4,3.91,5.58,5.05,7.72,7.34,13.8,13.82,33.22,15.26,48.8.26,2.77-.05,6,.27,8.62.19,1.57.99.98,1.34-.29.76-2.76.33-5.15.3-7.84-.16-15.41-2.6-29.56-8.9-43.64-3.55-7.92-4.72-8.84-10.9-14.17-.59-.51-.75-1.09-1.72-1.29-1.39-.28-.28.51-1.14.66-.23-.1-.29-.59-.41-.66ZM138.47,53.56c-.5-.06-.64-.02-.93.38-1.13,1.58,1.25,1.34.93-.38ZM141.11,54.52c-.12-.12-.81.1-1.02.23-.96.57-4.33,6.14-4.74,7.31-.32.89-.56,2.16.63,1.35.47-.32,4.33-6.44,4.7-7.29.12-.27.6-1.44.44-1.6ZM135.11,58.6c-.61-.54-1.36.71-1.64,1.12-9.31,13.54-13.84,33.6-12.53,49.87.04.47.58,3.81.73,3.95.05.05.52-.03.72,0-.21-1.1.23-2.22.25-3.23.07-3.27-.22-6.56-.02-9.86.68-11.22,3.97-22.99,8.55-33.2.49-1.09,4.53-8.12,3.93-8.66ZM298.92,61.76c-.23-.13-.64,0-.92-.04.7,2.51,1.96,4.95,2.71,7.48.38,1.29,1.17,6.42,1.58,7.01.2.28.47.11.74.14.03-.58,0-1.15-.06-1.74-.21-1.72-.98-4.48-1.48-6.19-.26-.87-2.2-6.45-2.57-6.67ZM308.79,95.55c-.11-1.76-.93-6.02-.73-7.53.03-.2.56.11.49-.97-.11-1.9-1.42-5.28-.94-6.94.07-.23.47-.05.46-.48-.07-1.69-1.04-.95-1.2-1.11-.45-.42.49-.81.5-.86.19-1.43-1.49-2.81-1.91-3.83-.58-1.42-.81-3.05-1.5-4.51-.33-.7-.67-1.75-1.64-1.59-.19,2.65,1.27,5.14,1.86,7.62,1.17,4.92,1.76,11.87,1.99,16.97,1.71,38.42-15.86,80.31-53.2,95.33-26.11,10.5-48.78,13.08-75.49,3.16-5.82-2.16-10.06-5.07-15.4-7.63-.98-.47-2.92-.85-3.68-1.36-.35-.23-.41-.7-.54-.78-.32-.19-1.69.03-1.83-.68-.07-.36.52-1.03-.04-1.42-2.35-1.67-4.75-3.38-7.01-5.16-3.65-2.87-7.52-5.93-10.95-9.04-.48-.43-1.49-2.23-1.95-1.76l-.12.72c-.99-.56-1.67-2.33-2.39-2.9-.25-.2-.51-.16-.61-.22-.06-.09.05-.53-.12-.71-1.32-.97-3.39-5.75-4.6-6.2-.18-.07-.78-.16-.79.07.31,2.15,1.59,3.95,2.58,5.82,5.23,9.79,12.5,18.27,21.5,25.17,12.05,9.24,28.75,15.06,43.63,17.65,2.51.44,4.3.6,6.76.65,2.74.06,7.33.38,9.86.03.46-.06.32-.49.49-.51.97-.12,2.17.37,3.75,0,3.85-.91,8.3-.76,12.36-1.36,15.23-2.26,28.16-6.05,41.06-14.6,9.83-6.52,23.63-23.32,29.09-33.77.91-1.74,1.7-3.59,2.36-5.44.06-.05.73.39.95.24.18-.13.94-2.6,1.14-3.06.43-.99,1.09-2.11,1.51-3.29.32-.88,2.21-6.77,1.91-7.08l-.71-.12.72-2.28.24,1.2h.72c.28-2.17,1.1-4.28,1.62-6.43.1-.44-.01-.93.06-1.25.15-.65.35-1.28.48-1.92.09-.46.35-1.05.48-1.68.03-.15-.03-.33,0-.48.1-.52.16-.92.24-1.44.02-.15-.02-.33,0-.48.06-.44.17-.92.24-1.44.02-.16-.02-.32,0-.48.06-.5.18-1.11.24-1.68.03-.31-.03-.65,0-.96.19-1.76.24-2.13.24-3.96v-3.6c0-.53-.32-1.39-.96-1.08,0-.38-.09-.89.11-1.21h.85c.11-.1-.41-.87-.48-.95.47-.51.16-2.04-.72-1.68-.15-1.99-.23-3.73-.48-5.76l.84-.96c.69-.14.21.82.36.96.48.47.91-.29.72-1.04-.05-.19-.48-.16-.48-.3,0-.24.28-.57.26-.9,0-.05-.62-.62-.67-.63-1.65-.36-1.36.47-1.26,1.91h-.24ZM308.75,81.97l-.74.16.34,1.57.74-.16-.34-1.57ZM309.27,87.39v1.44h.73v-1.44h-.73ZM310.47,90.27c-.08-.08-1.08.14-1.16.28-.39.65.18,1.77.67.98.11-.18.64-1.1.49-1.25ZM310.71,91.95c-.33-.34-1.8.53-1.2,1.2.34.37,1.57-.81,1.2-1.2ZM297.04,105.15c-.59,1.93-.35,1.61-.49,3.44-1.76,22.14-10.56,38.3-25.26,54.3-13.09,14.25-25.65,22.54-44.77,26.84-17.99,4.05-42.86-1.46-58.67-10.68-1.1-.64-7.9-5.13-8.38-5.03-1.12.24.53,1.92.85,2.27.24.26.12.78.94.6.36.37,1.11,1.17,1.44,1.44.08.72,1.38,1.38,1.99,1.72,26.36,14.73,62.94,18.31,90.05,3.6,22.97-12.47,40.61-33.63,43.26-60.39.57-5.77.61-12.64-.24-18.11-.13-.82-.13-1.86-.25-2.75-.04-.27.21-1.07-.35-.85-.71.28.07,2.96-.12,3.6ZM119.5,111.16c-.82-.22-.88.33-.95,1.07-.5,5.27,2.97,18,4.73,23.35,3.03,9.22,8.96,21.3,15.75,28.28,1.05,1.09,2.8,2.82,4.23,3.2.75-.75-4.72-6.46-4.92-7.79-.03-.21.22-.76.13-.85-.04-.04-.65.11-1.08-.24-.65-.54-3.42-5.47-4-6.56-2.48-4.63-5.02-10.23-6.96-15.12-3.27-8.25-5.25-16.64-6.93-25.35ZM155.44,172.64c-.72-.39-.85.12-.43.78.89,1.4,2.78.88,1.68,0-.23-.19-.71-.2-1.03-.37-.15-.08-.18-.38-.22-.41Z"/>
  <path class="st0" d="M112.32,93.63c-.43.04-.25-.81-.23-1.07.12-1.5.3-3.28.51-4.77.05-.37.12-1.45.45-1.59-.05,2.5-.33,4.98-.72,7.44Z"/>
  <path class="st2" d="M132.95,160.57c.09.06.35.02.61.22.72.57,1.4,2.33,2.39,2.9l.12-.72c.45-.47,1.47,1.33,1.95,1.76,3.43,3.11,7.3,6.17,10.95,9.04,2.27,1.78,4.66,3.48,7.01,5.16.56.38-.03,1.05.04,1.42.14.7,1.5.48,1.83.68.13.08.19.55.54.78.76.5,2.7.89,3.68,1.36,5.34,2.56,9.58,5.47,15.4,7.63,26.71,9.92,49.38,7.35,75.49-3.16,37.34-15.02,54.92-56.91,53.2-95.33-.23-5.09-.82-12.04-1.99-16.97-.59-2.47-2.05-4.97-1.86-7.62.98-.15,1.31.89,1.64,1.59.69,1.46.92,3.09,1.5,4.51.42,1.02,2.09,2.4,1.91,3.83,0,.06-.95.44-.5.86.17.16,1.14-.57,1.2,1.11.02.43-.39.25-.46.48-.48,1.66.83,5.04.94,6.94.06,1.08-.47.77-.49.97-.19,1.5.62,5.77.73,7.53.55,9.09.42,18.4-.51,27.44-.14,1.4-1.18,2.17.75,2.31-.07.32.04.81-.06,1.25-.51,2.15-1.34,4.26-1.62,6.43h-.72s-.24-1.2-.24-1.2l-.72,2.28.71.12c.3.31-1.6,6.2-1.91,7.08-.43,1.18-1.08,2.3-1.51,3.29-.2.46-.96,2.92-1.14,3.06-.21.16-.89-.29-.95-.24-.66,1.85-1.45,3.7-2.36,5.44-5.46,10.45-19.26,27.25-29.09,33.77-12.9,8.55-25.83,12.34-41.06,14.6-4.06.6-8.51.45-12.36,1.36-1.57.37-2.77-.11-3.75,0-.18.02-.03.45-.49.51-2.54.34-7.12.02-9.86-.03-2.46-.05-4.25-.22-6.76-.65-14.88-2.59-31.58-8.41-43.63-17.65-9.01-6.9-16.28-15.39-21.5-25.17-1-1.86-2.27-3.67-2.58-5.82.01-.24.61-.14.79-.07,1.21.45,3.29,5.24,4.6,6.2.18.18.07.61.12.71-.05-.03-.25.06-.42-.05l-4.38-6.18c.77,2.5,2.26,5.05,3.59,7.32,12.51,21.22,32.88,33.24,56.57,38.68,11.59,2.66,21.32,2.13,33.03,1.03,17.4-1.63,32.52-5.35,47.22-14.92,9.05-5.89,17.33-16.35,23.87-24.83s13.96-27.74,15.37-38.85c1.84-14.51.54-30.2-1.52-44.49l-3.01-9.34c-.45-.05-.2.5-.17.77.21,1.94,1.11,3.38,1.55,5.17,1.17,4.72,1.78,11.84,1.99,16.73,1.24,29.4-8.1,61.76-30.32,81.87-16.83,15.24-44.94,24.38-67.45,24.08-19.27-.26-32.24-6.12-48.87-14.47-9.13-4.58-21.63-13.8-27.06-22.49ZM148.23,173.61c-.67-.52-1.69-.93-2.43-1.53-1.12-.89-2.37-2.43-3.47-3.25-.33-.24-.5-.45-.97-.35-.35.28,5.42,5.16,5.88,5.52,1.96,1.56,4.57,3.48,6.66,4.85.33.22,1.53,1.17,1.85.91.43-.36-.33-.53-.45-.62-2.42-1.8-4.73-3.71-7.06-5.54Z"/>
  <path class="st2" d="M231.75,30.24c.07-.04-.1-.64,1.12-.45.58.09.42.65.73.71.25.05.64-.26.91-.23.06,0,.42.62.86.88.92.54,2.39.72,3.43,1.13,5.71,2.28,11.18,4.98,16.54,8.1.27.15,1.69,1.4,1.8,1.42.38.08.98-.12,1.24.04.1.06.17.75.52,1.04.88.74,3.3,1.67,4.24,2.35,1.44,1.04,3.1,3.01,4.74,4.02.38.24.93.18,1.04.27.08.06.16.79.41,1.15,1.56,2.26,4.6,4.83,6.45,7.23.99,1.29,3.21,5.37,3.96,6.06.25.23.63.11.69.18.08.09.05.91.23,1.35.16.39,2.52,4.44,2.75,4.57.28.16.79-.02.91.05.08.05-.18.97-.06,1.37.38,1.26,2.08,3.89,2.74,5.43,1.89,4.4,2.56,8.25,4,12.55.16.48.88.27.28,1.52,1.7-.03.27.78.24.88-.29,1.1.47,1.07.49,1.2.69,4.49.93,12.59.71,17.24-1.71,35.25-30.41,69.06-64.96,76.11-34.37,7.01-71.03-9.83-88.57-39.87-10.13-17.35-13.39-40.17-6.51-59.31,4.38-12.21,9.1-20.25,17.43-30.07.7-.82,2.57-2.46,3.02-3.22.23-.39.19-1,.25-1.06.05-.05.9-.09,1.4-.4,1.31-.81,3.12-2.89,4.45-3.94,8.04-6.37,18.01-10.57,27.55-14.14.43-1.69.88-.25.98-.26.47-.05,2.23-.93,2.96-1.13,7.09-1.92,16.39-3.85,23.67-4.16,4.84-.21,9.7.27,14.42.51.36.02,2.81.96,2.95.89ZM245.39,35.64c-16.83-7.71-30.53-7.6-48.39-3.57-16.39,3.7-34.78,12.3-46.05,24.97-8.14,9.15-12.46,17.03-16.96,28.39-16.07,40.57,12.55,85.21,51.85,97.7,37.14,11.8,69.86-1.04,91.86-31.94,20.71-29.08,18.95-65.46-2.74-93.43-7.08-9.13-19.17-17.35-29.58-22.12Z"/>
  <path class="st2" d="M248.29,24.81c.77,1.34-2.14.15-2.76,0-.24-.05-.84-.24-.78.18,2.11.61,4.21,1.43,6.23,2.29,15.74,6.74,25.68,13.26,33.39,28.98,1.08,2.21,3.32,6.61,3.93,8.79.1.36.24,1.05-.25,1.2-.41.12-1.27-.82-1.51-1.11-2.06-2.46-3.9-6.03-5.94-8.71-9.24-12.11-26.13-23.35-39.95-29.63-2.68-1.22-5.67-2.04-8.3-3.22-.38-.17-2.82-1.39-2.9-1.53s-.08-.64-.05-.67c.26-.27,5.92.86,6.84.96.25.03.9.17.83-.24-1.26-.65-2.45-.53-3.7-.74-13.32-2.29-29.42-3.66-42.65-.39-4.88,1.21-9.59,3.14-14.34,4.73l.96.24c.13,1.24-1.43,1.35-2.32,1.88-8.93,5.31-20.13,12.56-27.91,19.35-1.7,1.49-4.3,4.65-6.01,5.75-.38.24-.71.44-1.19.37-.17-1.01.17-1.57.62-2.38,2.4-4.33,7.14-9.88,11.3-12.7,1.36-.92,5.55-2.84,6.33-3.77.25-.29-.16-.89,1.01-1.87,21.5-17.95,55.98-22.73,81.67-11.73.9.39,7.25,3.56,7.46,3.93ZM245.46,23.81c-19.26-10.05-43.09-10.84-63.39-3.3-7.73,2.87-14.96,6.95-21.53,11.93l12.99-6.08c19.44-9.21,39.51-8.99,60.33-5.46,1.99.34,3.94.63,5.9,1.25,1.46.45,3.27,1.41,4.92,1.84.24.06.84.24.78-.18ZM276.51,44.82c-6.01-6.79-11.94-10.46-20.01-14.43s-16.72-7.37-25.44-8.26l.91.69c18.84,7.12,38.7,18.9,50.62,35.46,1.65,2.29,3.03,4.78,4.72,7.04.28-.15.08-.72,0-.96-1.83-5.62-6.94-15.15-10.82-19.53ZM175.89,26.21l-2.64.95c.92.13,2.04-.2,2.64-.95ZM172.29,28.61c-.42-.07-.75.06-1.13.19-5.84,1.97-19.63,9.29-23.7,13.73-1.76,1.91-4.75,6-6.17,8.23-.18.29-1.1,1.65-.9,1.85.45.1.57-.25.84-.48,1.92-1.59,3.73-3.75,5.63-5.4,6.39-5.55,15.42-11.68,22.61-16.25.96-.61,2.25-.84,2.82-1.86Z"/>
  <path class="st2" d="M160.13,174.77c-1.46-.16.37,1.02.81,1.48.2.21.24.55.32.63-.82.19-.7-.34-.94-.6-.32-.35-1.97-2.04-.85-2.27.48-.1,7.28,4.39,8.38,5.03,15.81,9.22,40.68,14.73,58.67,10.68,19.12-4.3,31.68-12.59,44.77-26.84,14.7-16,23.5-32.17,25.26-54.3.15-1.84-.1-1.51.49-3.44h.72c.85,5.47.81,12.35.24,18.11-2.64,26.76-20.28,47.92-43.26,60.39-27.1,14.71-63.69,11.14-90.05-3.6-.62-.34-1.91-1-1.99-1.72,1.01.84,1.82.94,2.77,1.43,36.03,18.47,77.08,18.69,107.83-9.95,17.87-16.64,24.66-34.34,24.46-58.78-.02-1.8.03-3.61,0-5.41l-.72.6c-.02,4.3-.65,8.53-1.42,12.74-3.27,17.83-11.44,30.18-23.16,43.3-11.09,12.41-23.26,21.97-39.71,26.5-13.12,3.61-23.42,3.5-36.77,1.01"/>
  <path class="st2" d="M280.44,44.26c.12.07.18.56.41.66.86-.15-.25-.94,1.14-.66.97.2,1.12.78,1.72,1.29,6.17,5.32,7.35,6.25,10.9,14.17,6.31,14.08,8.74,28.24,8.9,43.64.03,2.68.46,5.07-.3,7.84-.35,1.27-1.15,1.87-1.34.29-.32-2.62-.01-5.85-.27-8.62-1.44-15.58-7.92-35.01-15.26-48.8-1.14-2.14-3.59-6.31-5.05-7.72-.29-.28-1.1-.56-1.29-.88-.36-.62-.42-1.72.45-1.21ZM282.58,45.23c-.06-.07-.63-.34-.65-.31.04,1.42,1,2.51,1.69,3.65,5.67,9.51,10.04,19.24,13.3,29.94s5.54,21.68,5.52,32.87c.42-.5.49-1.43.57-2.07,1.39-10.42-1.56-28.24-4.7-38.42-1.47-4.77-5.86-16.26-8.94-19.86-1.86-2.18-4.54-3.21-6.23-4.8-.34-.32-.33-.75-.56-1Z"/>
  <path class="st2" d="M119.5,111.16c1.68,8.7,3.66,17.1,6.93,25.35,1.94,4.88,4.48,10.49,6.96,15.12.58,1.09,3.35,6.02,4,6.56.43.35,1.04.2,1.08.24.09.08-.16.64-.13.85.2,1.33,5.67,7.04,4.92,7.79-1.44-.38-3.18-2.12-4.23-3.2-6.78-6.98-12.71-19.06-15.75-28.28-1.76-5.35-5.23-18.08-4.73-23.35.07-.73.13-1.29.95-1.07ZM134.49,154.72c-5.39-9.07-9.49-19.96-12.55-30.04l-2.89-12.82c.04,2.56.36,5.2.79,7.73,2.46,14.55,9.16,32.65,19.35,43.5l3.12,2.88c-1.12-1.9-2.66-3.59-3.93-5.42s-2.76-3.94-3.88-5.83Z"/>
  <path class="st2" d="M135.11,58.6c.6.54-3.45,7.58-3.93,8.66-4.58,10.21-7.87,21.98-8.55,33.2-.2,3.3.09,6.58.02,9.86-.02,1.01-.46,2.13-.25,3.23-.19-.03-.67.05-.72,0-.15-.14-.69-3.48-.73-3.95-1.32-16.28,3.22-36.33,12.53-49.87.28-.41,1.03-1.66,1.64-1.12ZM121.91,111.14c.09-4.66.08-9.38.49-14.03.87-10.03,4.24-20.92,8.3-30.09.97-2.19,2.41-4.22,3.21-6.5-3.17,4.24-5.17,9.24-7.07,14.16-2.23,5.75-4.3,11.65-4.92,17.88-.53,5.37-.44,10.92-.49,16.32l.49,2.27Z"/>
  <path class="st1" d="M309.27,96.51c.25,2.02.33,3.77.48,5.76.03.34.14,1.28.25,1.5.14.29.45.15.47.18.06.08.59.85.48.96h-.85c-.2.31-.11.82-.11,1.2-.02,2.59.28,5.14.23,7.8,0,.45-.21.98.49.84-.03.31.03.65,0,.96h-.72c.11.69-.37,1.89.48,1.68-.02.16.02.32,0,.48-1.04-.45-1.05,1.65-.24,1.44-.02.15.02.33,0,.48-1.04-.45-1.05,1.65-.24,1.44-.03.15.03.33,0,.48-.98-.43-1.37,1.99-.48,1.68-.13.64-.33,1.27-.48,1.92-1.93-.14-.89-.91-.75-2.31.92-9.04,1.06-18.35.51-27.44h.24c.03.43.21.71.24.96Z"/>
  <path class="st2" d="M183.81,28.37c.24.24-.07.69-.41.91-1.55.98-4.83,1.64-6.71,2.4-2.68,1.08-5.8,2.94-8.4,3.83-.5.17-.96.36-1.5.29-.13-.71.41-1.02.85-1.43,2.06-1.95,6.98-3.56,9.75-4.4.79-.24,6.2-1.84,6.43-1.6ZM175.89,31.25c-2.1.35-4.76,1.26-6.51,2.5-.28.2-.59,0-.45.62,1.93-.79,4.48-1.53,6.3-2.45.26-.13.59-.36.66-.66Z"/>
  <path class="st2" d="M298.92,61.76c.37.22,2.31,5.79,2.57,6.67.51,1.71,1.27,4.48,1.48,6.19.07.58.1,1.15.06,1.74-.27-.04-.54.14-.74-.14-.42-.59-1.2-5.72-1.58-7.01-.75-2.54-2.01-4.98-2.71-7.48.28.03.69-.09.92.04Z"/>
  <path class="st2" d="M141.11,54.52c.17.16-.32,1.33-.44,1.6-.38.85-4.23,6.97-4.7,7.29-1.19.81-.94-.46-.63-1.35.42-1.18,3.79-6.74,4.74-7.31.22-.13.9-.35,1.02-.23ZM139.67,56.44l-1.4,1.36-.76,2c.92-.88,1.76-2.14,2.16-3.36ZM137.27,60.28c-.64-.13-.41.17-.59.47-.3.5-.7,1.13-.84,1.68l1.12-1.15.31-1.01Z"/>
  <path class="st2" d="M309.99,106.11c.64-.31.96.55.96,1.08v3.6c0,1.83-.05,2.2-.24,3.96-.7.14-.5-.38-.49-.84.05-2.66-.25-5.21-.23-7.8Z"/>
  <path class="st2" d="M309.03,95.55c-.09-1.44-.39-2.26,1.26-1.91.04,0,.66.58.67.63.02.33-.26.66-.26.9,0,.14.43.11.48.3.2.75-.23,1.51-.72,1.04-.15-.14.33-1.11-.36-.96l-.84.96c-.03-.25-.21-.53-.24-.96Z"/>
  <path class="st1" d="M297.04,105.15c.19-.64-.59-3.32.12-3.6.56-.22.31.58.35.85.12.89.12,1.93.25,2.75h-.72Z"/>
  <path class="st2" d="M155.44,172.64s.07.32.22.41c.31.17.79.18,1.03.37,1.1.88-.8,1.41-1.68,0-.42-.66-.29-1.17.43-.78Z"/>
  <path class="st2" d="M262.25,43.72c-.3.29-2.02-.25-1.44-1.2.66-.37,1.88.77,1.44,1.2Z"/>
  <path class="st2" d="M138.47,53.56c.31,1.73-2.06,1.97-.93.38.29-.41.43-.45.93-.38Z"/>
  <path class="st2" d="M310.47,90.27c.15.15-.37,1.07-.49,1.25-.5.79-1.06-.33-.67-.98.08-.13,1.08-.36,1.16-.28Z"/>
  <path class="st2" d="M309.75,102.27c.88-.36,1.19,1.17.72,1.68-.02-.03-.33.12-.47-.18-.11-.23-.22-1.17-.25-1.5Z"/>
  <path class="st2" d="M310.71,115.7c-.06.57-.18,1.17-.24,1.68-.85.21-.37-.98-.48-1.68h.72Z"/>
  <path class="st2" d="M309.99,121.7c-.13.63-.39,1.22-.48,1.68-.89.31-.5-2.11.48-1.68Z"/>
  <path class="st2" d="M310.71,91.95c.37.39-.86,1.57-1.2,1.2-.61-.67.87-1.54,1.2-1.2Z"/>
  <path class="st2" d="M310.47,117.86c-.07.52-.18,1-.24,1.44-.81.22-.8-1.89.24-1.44Z"/>
  <rect class="st2" x="236.93" y="9.57" width=".76" height="1.61" transform="translate(3.28 51.04) rotate(-12.36)"/>
  <rect class="st2" x="308.18" y="82.03" width=".76" height="1.61" transform="translate(-10.58 67.97) rotate(-12.36)"/>
  <rect class="st2" x="309.27" y="87.39" width=".73" height="1.44"/>
  <path class="st2" d="M310.23,119.78c-.08.52-.14.92-.24,1.44-.81.22-.8-1.89.24-1.44Z"/>
  <rect class="st2" x="220.27" y="6.29" width=".72" height="1.2" transform="translate(213.13 227.5) rotate(-89.84)"/>
  <path class="st0" d="M175.89,26.21c-.6.75-1.72,1.08-2.64.95l2.64-.95Z"/>
  <path class="st3" d="M139.67,56.44c-.4,1.22-1.24,2.48-2.16,3.36l.76-2,1.4-1.36Z"/>
  <path class="st3" d="M137.27,60.28l-.31,1.01-1.12,1.15c.14-.55.55-1.19.84-1.68.18-.31-.05-.61.59-.47Z"/>
</svg>